<?xml version="1.0" encoding="UTF-8" standalone="no"?>
<svg
   id="Groupe_80"
   data-name="Groupe 80"
   viewBox="0 0 206.00001 75"
   version="1.1"
   sodipodi:docname="P5-FFME.svg"
   width="206"
   height="75"
   inkscape:version="1.4.2 (f4327f4, 2025-05-13)"
   xmlns:inkscape="http://www.inkscape.org/namespaces/inkscape"
   xmlns:sodipodi="http://sodipodi.sourceforge.net/DTD/sodipodi-0.dtd"
   xmlns="http://www.w3.org/2000/svg"
   xmlns:svg="http://www.w3.org/2000/svg">
  <sodipodi:namedview
     id="namedview1"
     pagecolor="#ffffff"
     bordercolor="#000000"
     borderopacity="0.25"
     inkscape:showpageshadow="2"
     inkscape:pageopacity="0.0"
     inkscape:pagecheckerboard="0"
     inkscape:deskcolor="#d1d1d1"
     inkscape:zoom="0.84367588"
     inkscape:cx="192.60951"
     inkscape:cy="-4.1485126"
     inkscape:window-width="1920"
     inkscape:window-height="1009"
     inkscape:window-x="-8"
     inkscape:window-y="-8"
     inkscape:window-maximized="1"
     inkscape:current-layer="Groupe_80" />
  <defs
     id="defs1">
    <style
       id="style1">
      .cls-1 {
        fill: #0095db;
      }

      .cls-2 {
        fill: #164194;
      }

      .cls-3 {
        fill: #e30613;
      }

      .cls-4 {
        fill: #a51008;
      }
    </style>
  </defs>
  <g
     id="g1"
     transform="translate(9.967,10.227)">
    <g
       id="Groupe_83"
       data-name="Groupe 83"
       transform="translate(0,22.262)">
      <path
         id="Tracé_74"
         data-name="Tracé 74"
         class="cls-1"
         d="m 39.577,42.2 c 3.482,0 6.278,1.688 6.278,4.484 V 51.8 c 0,2.8 -2.8,4.537 -6.278,4.537 C 36.099,56.337 33.3,54.6 33.3,51.8 V 46.684 C 33.247,43.941 36.1,42.2 39.577,42.2 Z m 0,11.5 c 1.741,0 3.165,-0.739 3.165,-2.057 V 47 c 0,-1.372 -1.424,-2.057 -3.165,-2.057 -1.794,0 -3.165,0.739 -3.165,2.057 v 4.59 c -0.053,1.372 1.371,2.11 3.165,2.11 z"
         transform="translate(-15.732,-42.2)" />
      <path
         id="Tracé_75"
         data-name="Tracé 75"
         class="cls-1"
         d="M 89.3,45.438 V 42.8 h 12.081 v 2.638 H 96.9 v 10.92 h -3.116 v -10.92 z"
         transform="translate(-42.191,-42.483)" />
      <path
         id="Tracé_76"
         data-name="Tracé 76"
         class="cls-1"
         d="m 143.819,56.438 c -3.482,0 -6.119,-1.741 -6.119,-4.537 v -5.117 c 0,-2.743 2.585,-4.484 6.119,-4.484 3.534,0 6.119,1.477 6.119,3.957 v 1.108 h -3.06 v -0.9 c 0,-1 -1.213,-1.53 -3.06,-1.53 -1.741,0 -3.007,0.739 -3.007,2.057 v 4.642 c 0,1.372 1.266,2.057 3.007,2.057 1.741,0 3.007,-0.739 3.007,-2.057 v -0.475 h -3.375 v -2.581 h 6.489 V 51.9 c 0,2.8 -2.639,4.538 -6.12,4.538 z"
         transform="translate(-65.058,-42.247)" />
      <path
         id="Tracé_77"
         data-name="Tracé 77"
         class="cls-1"
         d="m 205.64,42.8 v 2.69 h -7.227 v 2.69 h 6.014 v 2.638 h -6.014 v 2.9 h 7.387 v 2.638 H 195.3 V 42.8 Z"
         transform="translate(-92.271,-42.483)" />
      <path
         id="Tracé_78"
         data-name="Tracé 78"
         class="cls-1"
         d="m 116.915,42.8 h -2.849 L 108,56.358 h 3.429 l 1.161,-2.8 h 4.11 l -1.055,-2.479 h -2.057 l 1.9,-4.537 4.062,9.812 h 3.429 z"
         transform="translate(-51.026,-42.483)" />
      <g
         id="Groupe_80-2"
         data-name="Groupe 80"
         transform="translate(0,0.317)">
        <path
           id="Tracé_79"
           data-name="Tracé 79"
           class="cls-1"
           d="m 0,51.4 v 9.021 H 3.06 V 56.1 Z"
           transform="translate(0,-46.863)" />
        <path
           id="Tracé_80"
           data-name="Tracé 80"
           class="cls-1"
           d="M 12.186,42.8 7.386,49.975 2.532,42.8 H 0 v 1.635 l 5.75,8.6 h 3.218 l 2.69,-4.009 v 7.333 h 3.06 V 42.8 Z"
           transform="translate(0,-42.8)" />
      </g>
      <g
         id="Groupe_81"
         data-name="Groupe 81"
         transform="translate(32.866,0.317)">
        <path
           id="Tracé_81"
           data-name="Tracé 81"
           class="cls-1"
           d="m 71.743,42.8 v 8.7 L 65.465,42.8 H 62.3 v 0.95 l 9.337,12.608 h 3.218 V 42.8 Z"
           transform="translate(-62.3,-42.8)" />
        <path
           id="Tracé_82"
           data-name="Tracé 82"
           class="cls-1"
           d="m 62.3,49.8 v 9.865 h 3.06 v -5.75 z"
           transform="translate(-62.3,-46.107)" />
      </g>
      <g
         id="Groupe_82"
         data-name="Groupe 82"
         transform="translate(87.625,0.317)">
        <path
           id="Tracé_83"
           data-name="Tracé 83"
           class="cls-1"
           d="m 175.543,42.8 v 8.7 l -6.278,-8.7 H 166.1 v 0.95 l 9.337,12.608 h 3.218 V 42.8 Z"
           transform="translate(-166.1,-42.8)" />
        <path
           id="Tracé_84"
           data-name="Tracé 84"
           class="cls-1"
           d="m 166.1,49.8 v 9.865 h 3.06 v -5.75 z"
           transform="translate(-166.1,-46.107)" />
      </g>
    </g>
    <g
       id="Groupe_84"
       data-name="Groupe 84"
       transform="translate(72.959,40.41)">
      <path
         id="Tracé_85"
         data-name="Tracé 85"
         class="cls-2"
         d="m 148.64,77.1 v 2.69 h -7.227 v 2.69 h 6.014 v 2.638 h -6.014 v 2.9 h 7.387 v 2.638 H 138.3 V 77.1 Z"
         transform="translate(-138.3,-76.836)" />
      <path
         id="Tracé_86"
         data-name="Tracé 86"
         class="cls-2"
         d="M 166.307,85.774 V 86.2 c 0,0.95 1.108,1.9 3.324,1.9 2,0 3.007,-0.633 3.007,-1.53 v -0.11 c 0,-0.9 -1.319,-1.161 -3.165,-1.266 -2.954,-0.264 -5.856,-1.213 -5.856,-4.062 v -0.369 c 0,-2.321 1.794,-4.062 5.8,-4.062 4.062,0 5.961,2 5.961,4.273 v 0.633 h -3.007 v -0.422 c 0,-0.95 -0.791,-1.846 -2.954,-1.846 -1.846,0 -2.743,0.633 -2.743,1.424 v 0.106 c 0,1.108 1.477,1.319 3.271,1.424 2.743,0.211 5.75,1.161 5.75,3.9 v 0.475 c 0,2.479 -2.057,4.115 -6.067,4.115 -4.062,0 -6.33,-1.9 -6.33,-4.379 v -0.633 z"
         transform="translate(-150.111,-76.647)" />
      <path
         id="Tracé_87"
         data-name="Tracé 87"
         class="cls-2"
         d="m 198.714,76.6 c 3.535,0 6.014,1.688 6.014,4.009 v 1.319 h -3.06 V 80.82 c 0,-0.95 -1.161,-1.583 -2.954,-1.583 -1.741,0 -2.9,0.739 -2.9,2.057 v 4.642 c 0,1.372 1.161,2.057 2.9,2.057 1.739,0 2.954,-0.633 2.954,-1.583 V 85.2 h 3.06 v 1.424 c 0,2.321 -2.479,4.009 -6.014,4.009 -3.482,0 -6.014,-1.794 -6.014,-4.537 v -5.117 c 0,-2.638 2.479,-4.379 6.014,-4.379 z"
         transform="translate(-164.002,-76.6)" />
      <path
         id="Tracé_88"
         data-name="Tracé 88"
         class="cls-2"
         d="m 254.26,77.1 v 10.92 h 7.175 l -1.213,2.638 H 251.2 V 77.1 Z"
         transform="translate(-191.641,-76.836)" />
      <path
         id="Tracé_89"
         data-name="Tracé 89"
         class="cls-2"
         d="m 343.14,77.1 v 2.69 h -7.227 v 2.69 h 6.014 v 2.638 h -6.014 v 2.9 h 7.387 v 2.638 H 332.8 V 77.1 Z"
         transform="translate(-230.193,-76.836)" />
      <path
         id="Tracé_90"
         data-name="Tracé 90"
         class="cls-2"
         d="m 227.763,77.1 h -2.849 L 218.9,90.711 h 3.429 l 1.108,-2.8 h 4.115 l -1,-2.532 h -2.057 l 1.846,-4.537 4.115,9.865 h 3.376 z"
         transform="translate(-176.38,-76.836)" />
      <path
         id="Tracé_91"
         data-name="Tracé 91"
         class="cls-2"
         d="m 280.863,77.1 h -2.849 L 272,90.711 h 3.376 l 1.161,-2.8 h 4.115 L 279.6,85.382 h -2.057 l 1.9,-4.537 4.062,9.865 h 3.429 z"
         transform="translate(-201.468,-76.836)" />
      <path
         id="Tracé_92"
         data-name="Tracé 92"
         class="cls-2"
         d="M 310.083,77.1 H 303.7 v 13.611 h 3.112 V 79.79 h 3.271 c 1.688,0 2.638,0.686 2.638,2.057 v 4.115 c 0,1.372 -0.95,2.057 -2.638,2.057 h -1.477 v 2.638 h 1.477 c 3.534,0 5.7,-1.741 5.7,-4.484 v -4.59 c -0.002,-2.742 -2.165,-4.483 -5.7,-4.483 z"
         transform="translate(-216.445,-76.836)" />
    </g>
    <g
       id="Groupe_85"
       data-name="Groupe 85"
       transform="translate(0,11.659)">
      <path
         id="Tracé_93"
         data-name="Tracé 93"
         class="cls-2"
         d="m 0.739,24.886 v 1.635 h 2.11 v 0.633 h -2.11 v 2.321 H 0 V 24.2 h 3.218 v 0.686 z"
         transform="translate(0,-23.092)" />
      <path
         id="Tracé_94"
         data-name="Tracé 94"
         class="cls-2"
         d="m 12.19,22.1 -0.9,0.844 H 10.762 L 11.29,22.1 Z m 0.686,5.7 v 0.633 H 9.5 v -5.278 h 3.218 v 0.633 h -2.532 v 1.583 H 12.4 v 0.58 h -2.161 v 1.794 h 2.638 z"
         transform="translate(-4.488,-22.1)" />
      <path
         id="Tracé_95"
         data-name="Tracé 95"
         class="cls-2"
         d="M 21.194,29.475 H 19.4 V 24.2 h 1.794 c 1.583,0 2.268,0.739 2.268,2.585 -0.053,1.952 -0.738,2.69 -2.268,2.69 z m -0.053,-4.59 h -1.055 v 3.9 h 1.108 c 1.055,0 1.53,-0.369 1.53,-2 -0.053,-1.477 -0.475,-1.899 -1.583,-1.899 z"
         transform="translate(-9.166,-23.092)" />
      <path
         id="Tracé_96"
         data-name="Tracé 96"
         class="cls-2"
         d="m 33.49,22.1 -0.9,0.844 H 32.062 L 32.59,22.1 Z m 0.633,5.7 v 0.633 H 30.8 v -5.278 h 3.218 v 0.633 h -2.532 v 1.583 h 2.163 v 0.58 h -2.163 v 1.794 h 2.638 z"
         transform="translate(-14.552,-22.1)" />
      <path
         id="Tracé_97"
         data-name="Tracé 97"
         class="cls-2"
         d="M 43.027,27.1 44.4,29.423 H 43.556 L 42.394,27.26 h -1.055 v 2.216 H 40.6 V 24.2 h 1.794 c 1.161,0 1.688,0.475 1.688,1.477 0,0.844 -0.37,1.323 -1.055,1.423 z m -0.633,-2.268 h -1.055 v 1.846 h 1.055 c 0.686,0 0.95,-0.264 0.95,-0.95 -10e-4,-0.628 -0.317,-0.895 -0.95,-0.895 z"
         transform="translate(-19.182,-23.092)" />
      <path
         id="Tracé_98"
         data-name="Tracé 98"
         class="cls-2"
         d="m 53.435,28.209 h -2.322 l -0.422,1.266 H 49.9 L 51.852,24.2 H 52.7 l 1.952,5.275 h -0.791 z m -1.319,-2.9 -0.791,2.321 h 1.9 l -0.739,-2.321 -0.158,-0.528 v 0 z"
         transform="translate(-23.576,-23.092)" />
      <path
         id="Tracé_99"
         data-name="Tracé 99"
         class="cls-2"
         d="m 62.521,24.886 v 4.59 h -0.739 v -4.59 H 60.2 V 24.2 H 64 v 0.686 z"
         transform="translate(-28.442,-23.092)" />
      <path
         id="Tracé_100"
         data-name="Tracé 100"
         class="cls-2"
         d="m 70.8,24.2 h 0.739 v 5.275 H 70.8 Z"
         transform="translate(-33.45,-23.092)" />
      <path
         id="Tracé_101"
         data-name="Tracé 101"
         class="cls-2"
         d="m 78.163,29.534 c -1.53,0 -2.163,-0.791 -2.163,-2.743 0,-1.952 0.633,-2.69 2.163,-2.69 1.583,0 2.163,0.791 2.163,2.69 0.053,1.951 -0.58,2.743 -2.163,2.743 z m 0,-4.8 c -1.055,0 -1.424,0.422 -1.424,2.057 0,1.583 0.369,2.057 1.424,2.057 1.055,0 1.424,-0.422 1.424,-2.057 0,-1.583 -0.369,-2.058 -1.424,-2.058 z"
         transform="translate(-35.907,-23.045)" />
      <path
         id="Tracé_102"
         data-name="Tracé 102"
         class="cls-2"
         d="M 91.429,29.475 88.95,25.888 88.633,25.413 v 0 4.115 H 88 v -5.275 h 0.633 l 2.638,3.957 v 0 -4.01 H 91.9 v 5.275 z"
         transform="translate(-41.576,-23.092)" />
      <path
         id="Tracé_103"
         data-name="Tracé 103"
         class="cls-2"
         d="m 105.939,24.886 v 1.635 h 2.11 v 0.633 h -2.11 v 2.321 H 105.2 V 24.2 h 3.218 v 0.686 z"
         transform="translate(-49.703,-23.092)" />
      <path
         id="Tracé_104"
         data-name="Tracé 104"
         class="cls-2"
         d="m 117.079,27.1 1.372,2.321 h -0.844 l -1.213,-2.163 h -1.055 v 2.216 H 114.6 V 24.2 h 1.794 c 1.161,0 1.688,0.475 1.688,1.477 0,0.844 -0.317,1.323 -1.003,1.423 z m -0.686,-2.268 h -1.055 v 1.846 h 1.055 c 0.686,0 0.95,-0.264 0.95,-0.95 0,-0.628 -0.264,-0.895 -0.949,-0.895 z"
         transform="translate(-54.144,-23.092)" />
      <path
         id="Tracé_105"
         data-name="Tracé 105"
         class="cls-2"
         d="m 127.482,28.209 h -2.321 l -0.422,1.266 H 124 l 1.952,-5.275 h 0.844 l 1.952,5.275 h -0.791 z m -1.319,-2.9 -0.791,2.321 h 1.9 l -0.739,-2.321 -0.158,-0.528 v 0 z"
         transform="translate(-58.585,-23.092)" />
      <path
         id="Tracé_106"
         data-name="Tracé 106"
         class="cls-2"
         d="m 139.529,29.475 -2.479,-3.587 -0.317,-0.475 v 0 4.115 H 136.1 v -5.275 h 0.633 l 2.638,3.957 v 0 -4.01 H 140 v 5.275 z"
         transform="translate(-64.302,-23.092)" />
      <path
         id="Tracé_107"
         data-name="Tracé 107"
         class="cls-2"
         d="m 149.2,29.434 c -1.372,-0.106 -2,-0.95 -2,-2.743 0,-1.793 0.739,-2.69 2.321,-2.69 a 2.751,2.751 0 0 1 1.213,0.264 l -0.105,0.633 a 3.181,3.181 0 0 0 -1.108,-0.211 c -1.108,0 -1.583,0.475 -1.583,2 0,1.635 0.475,2.11 1.583,2.11 a 2.452,2.452 0 0 0 1.108,-0.264 l 0.105,0.58 a 3.061,3.061 0 0 1 -1.108,0.317 l -0.211,1.266 h -0.633 z"
         transform="translate(-69.546,-22.998)" />
      <path
         id="Tracé_108"
         data-name="Tracé 108"
         class="cls-2"
         d="m 159.835,28.209 h -2.321 l -0.422,1.266 H 156.3 l 1.952,-5.275 h 0.844 l 1.952,5.275 h -0.791 z m -1.319,-2.9 -0.791,2.321 h 1.9 l -0.739,-2.321 -0.158,-0.528 v 0 z"
         transform="translate(-73.845,-23.092)" />
      <path
         id="Tracé_109"
         data-name="Tracé 109"
         class="cls-2"
         d="m 168.7,24.2 h 0.739 v 5.275 H 168.7 Z"
         transform="translate(-79.704,-23.092)" />
      <path
         id="Tracé_110"
         data-name="Tracé 110"
         class="cls-2"
         d="m 175.33,29.534 a 2.884,2.884 0 0 1 -1.53,-0.422 l 0.105,-0.633 a 2.653,2.653 0 0 0 1.424,0.422 c 0.739,0 1.108,-0.317 1.108,-0.9 0,-1.213 -2.585,-0.686 -2.585,-2.427 0,-0.844 0.528,-1.477 1.741,-1.477 a 3.529,3.529 0 0 1 1.372,0.264 L 176.86,25 a 3.4,3.4 0 0 0 -1.266,-0.264 c -0.791,0 -1.055,0.369 -1.055,0.791 0,1.161 2.585,0.633 2.585,2.427 0,0.946 -0.634,1.58 -1.794,1.58 z"
         transform="translate(-82.113,-23.045)" />
      <path
         id="Tracé_111"
         data-name="Tracé 111"
         class="cls-2"
         d="m 186.923,28.742 v 0.633 H 183.6 V 24.1 h 3.218 v 0.633 h -2.532 v 1.583 h 2.163 v 0.58 h -2.163 v 1.794 h 2.638 z"
         transform="translate(-86.743,-23.045)" />
    </g>
    <g
       id="Groupe_88"
       data-name="Groupe 88"
       transform="translate(118.539)">
      <g
         id="Groupe_87"
         data-name="Groupe 87">
        <g
           id="Groupe_86"
           data-name="Groupe 86">
          <path
             id="Tracé_112"
             data-name="Tracé 112"
             class="cls-1"
             d="M 252.185,2.427 249.758,0 h -8.071 l -3.482,7.438 h -7.386 l -3.693,7.86 v 0 l -2.426,5.223 5.275,5.223 5.434,-11.606 0.053,-0.106 v 0 a 0.593,0.593 0 0 1 0.475,-0.369 0.6,0.6 0 0 1 0.422,0.158 l 11.711,11.818 a 0.786,0.786 0 0 0 0.475,0.211 0.5,0.5 0 0 0 0.422,-0.422 v -7.914 l -5.328,-5.381 2.638,-5.539 a 0.593,0.593 0 0 1 0.475,-0.369 0.6,0.6 0 0 1 0.422,0.158 l 11.764,11.764 a 0.786,0.786 0 0 0 0.475,0.211 0.454,0.454 0 0 0 0.422,-0.422 v -7.86 z"
             transform="translate(-224.7)" />
        </g>
        <path
           id="Tracé_113"
           data-name="Tracé 113"
           class="cls-2"
           d="m 246,24.677 a 0.6,0.6 0 0 1 0.422,0.158 L 258.133,36.6 a 0.786,0.786 0 0 0 0.475,0.211 h 0.053 L 253.649,23.2 Z"
           transform="translate(-234.763,-10.961)" />
        <path
           id="Tracé_114"
           data-name="Tracé 114"
           class="cls-2"
           d="m 265.7,6.542 a 0.5,0.5 0 0 1 0.422,-0.264 0.6,0.6 0 0 1 0.422,0.158 L 278.308,18.2 a 0.786,0.786 0 0 0 0.475,0.211 c 0.053,0 0.053,0 0.106,-0.053 L 269.129,0 Z"
           transform="translate(-244.071)" />
        <path
           id="Tracé_115"
           data-name="Tracé 115"
           class="cls-2"
           d="m 250.3,7.438 5.486,4.748 L 253.782,0 Z"
           transform="translate(-236.795)" />
        <path
           id="Tracé_116"
           data-name="Tracé 116"
           class="cls-2"
           d="m 227.179,22.013 v 0 l -2.479,5.223 5.275,5.223 0.9,-18.358 z"
           transform="translate(-224.7,-6.662)" />
        <path
           id="Tracé_117"
           data-name="Tracé 117"
           class="cls-3"
           d="m 238,46.625 9.021,9.021 a 0.843,0.843 0 0 0 0.528,0.264 0.548,0.548 0 0 0 0.475,-0.475 V 47.627 L 240.8,40.4 Z"
           transform="translate(-230.984,-19.087)" />
        <path
           id="Tracé_118"
           data-name="Tracé 118"
           class="cls-3"
           d="m 238,46.625 9.021,9.021 a 0.843,0.843 0 0 0 0.528,0.264 0.548,0.548 0 0 0 0.475,-0.475 V 47.627 L 240.8,40.4 Z"
           transform="translate(-230.984,-19.087)" />
      </g>
      <path
         id="Tracé_119"
         data-name="Tracé 119"
         class="cls-4"
         d="m 238,46.625 9.021,9.021 a 0.843,0.843 0 0 0 0.528,0.264 c 0.053,0 0.106,-0.053 0.158,-0.053 L 240.8,40.4 Z"
         transform="translate(-230.984,-19.087)" />
    </g>
  </g>
</svg>
