<?xml version="1.0" encoding="UTF-8" standalone="no"?>
<!-- Created with Inkscape (http://www.inkscape.org/) -->

<svg
   version="1.1"
   id="svg1"
   width="1631.3264"
   height="460.63303"
   viewBox="0 0 1631.3264 460.63303"
   sodipodi:docname="Logo Championnat France 2026 (sans escalade).svg"
   xml:space="preserve"
   inkscape:version="1.4.2 (f4327f4, 2025-05-13)"
   xmlns:inkscape="http://www.inkscape.org/namespaces/inkscape"
   xmlns:sodipodi="http://sodipodi.sourceforge.net/DTD/sodipodi-0.dtd"
   xmlns="http://www.w3.org/2000/svg"
   xmlns:svg="http://www.w3.org/2000/svg"><defs
     id="defs1"><clipPath
       clipPathUnits="userSpaceOnUse"
       id="clipPath1491"><path
         d="m 98.414,301.036 h 290.791 v 41.789 H 98.414 Z"
         id="path1489" /></clipPath><clipPath
       clipPathUnits="userSpaceOnUse"
       id="clipPath1523"><path
         d="m 71.433,437.747 1.524,-99.765 367.639,5.615 -1.524,99.765 z"
         id="path1521" /></clipPath><clipPath
       clipPathUnits="userSpaceOnUse"
       id="clipPath2579"><path
         d="m 427.745,372.227 31.979,-83.312 62.266,23.902 -31.981,83.312 z"
         id="path2577" /></clipPath></defs><sodipodi:namedview
     id="namedview1"
     pagecolor="#ffffff"
     bordercolor="#000000"
     borderopacity="0.25"
     inkscape:showpageshadow="2"
     inkscape:pageopacity="0.0"
     inkscape:pagecheckerboard="0"
     inkscape:deskcolor="#d1d1d1"
     inkscape:zoom="0.28020833"
     inkscape:cx="1040.2974"
     inkscape:cy="683.42007"
     inkscape:window-width="1920"
     inkscape:window-height="1009"
     inkscape:window-x="-8"
     inkscape:window-y="-8"
     inkscape:window-maximized="1"
     inkscape:current-layer="g1794" /><g
     inkscape:groupmode="layer"
     inkscape:label="Image"
     id="g1"
     transform="translate(-441.69194,-377.26039)"><g
       id="g10"><g
         id="g9"><g
           id="g1794"
           transform="matrix(1.3333333,0,0,-1.3333333,519.26623,2201.2771)"><g
             id="g11"><path
               style="fill:#000000"
               d="m 634.60737,837.37208 c -20.12528,-2.3929 -37.12708,-6.3397 -53.09882,-12.3263 -65.05029,-24.3824 -115.26439,-80.0331 -132.87157,-147.2573 -6.03363,-23.0365 -6.96178,-30.0876 -6.94482,-52.76 0.0264,-35.3163 6.44916,-63.6813 21.41481,-94.5751 26.89347,-55.5166 75.32784,-96.3478 134.66261,-113.5235 18.94558,-5.4842 28.99986,-6.9541 51.84547,-7.5799 39.40508,-1.0794 64.35636,4.2604 98.99232,21.1852 24.64154,12.041 43.65813,25.6327 61.04491,43.6305 19.34691,20.0268 32.14994,38.7944 42.18843,61.8429 13.33881,30.626 18.68211,55.7304 18.62803,87.5199 -0.0667,39.1781 -9.93485,75.5574 -29.8384,110 -11.28337,19.5255 -30.36051,41.3223 -49.62729,56.7021 -33.05778,26.3885 -67.83533,41.1984 -108.85767,46.3566 -10.2173,1.2847 -39.29611,1.7649 -47.53801,0.7849 z m 52.32584,-23.8015 c 41.76121,-7.0534 78.14621,-26.1233 107.20072,-56.1852 20.43814,-21.1469 34.08082,-43.3941 43.78085,-71.3937 23.94332,-69.1136 5.5666,-148.3755 -46.16784,-199.1298 -26.06074,-25.5669 -62.03257,-44.753 -97.40433,-51.9518 -13.23362,-2.6933 -51.57877,-3.8147 -65.90702,-1.9274 -74.32583,9.7897 -138.47558,67 -158.16373,141.0541 -4.77015,17.9422 -6.24259,27.3075 -6.83795,43.4917 -1.53488,41.7241 12.52104,86.1939 37.94779,120.0585 9.59569,12.78 25.11094,29.1695 35.69148,37.7026 25.03526,20.1907 58.41148,34.383 92.18092,39.1974 12.97855,1.8503 44.23904,1.3536 57.67911,-0.9164 z m -49.32584,-25.2424 c -4.43195,-2.8615 -75.58089,-73.6037 -77.27098,-76.8293 -0.87101,-1.6623 0.10611,-4.7382 5.40034,-17 3.55506,-8.2337 8.55312,-19.8281 11.10679,-25.7651 3.67501,-8.5442 5.01936,-10.7333 6.44807,-10.5 2.70414,0.4415 59.77655,57.6837 61.49818,61.6812 1.19324,2.7705 1.42029,9.2275 1.24829,35.5 -0.11563,17.6624 -0.61318,32.901 -1.10565,33.8635 -1.1851,2.3161 -2.53762,2.1407 -7.32504,-0.9503 z m 60.88486,-94.4992 c -1.58667,-1.2097 -24.83627,-24.0371 -51.66576,-50.7275 -26.8295,-26.6905 -49.46556,-48.9113 -50.30236,-49.3796 -1.827,-1.0224 -4.05474,0.5906 -5.02124,3.6358 -0.37507,1.1818 -3.6005,8.2286 -7.16762,15.6597 -5.95721,12.4102 -9.05929,18.968 -18.21693,38.5111 -1.80407,3.85 -5.96411,12.625 -9.24455,19.5 -3.28043,6.875 -6.85597,14.7457 -7.94564,17.4905 -2.12023,5.3407 -3.50468,6.7884 -5.44593,5.6948 -0.66904,-0.3769 -10.70207,-10.0452 -22.29563,-21.4851 -15.25005,-15.0478 -21.0792,-21.4331 -21.0792,-23.0902 0,-1.2598 1.31005,-4.95 2.91122,-8.2003 1.60117,-3.2504 6.38107,-13.3347 10.622,-22.4097 4.24093,-9.075 10.17472,-21.675 13.18622,-28 3.01149,-6.325 8.31103,-17.8 11.77676,-25.5 3.46572,-7.7 7.70136,-17.0375 9.41252,-20.75 l 3.11119,-6.75 h 31.43103 c 24.03875,0 31.6213,-0.2939 32.24004,-1.2495 0.44496,-0.6871 1.48402,-2.8965 2.30902,-4.9097 5.3003,-12.934 24.71542,-53.1328 26.69087,-55.2633 l 2.39007,-2.5775 h 31.89443 c 18.76563,0 32.97319,0.4101 34.51512,0.9963 3.59777,1.3679 84.36493,82.7085 86.11012,86.7215 1.107,2.5456 1.37856,9.6496 1.29971,34 -0.0548,16.9302 -0.41001,31.9072 -0.7893,33.2822 -0.52154,1.8906 -1.46115,2.5755 -3.85523,2.81 -2.96855,0.2907 -6.36914,-2.8686 -54.62709,-50.75 -28.30382,-28.083 -51.87937,-51.06 -52.39011,-51.06 -1.79722,0 -4.04022,3.6291 -10.50676,17 -10.45718,21.6222 -13.73183,29.1331 -13.73183,31.4958 0,1.5463 6.28585,8.5182 20.83496,23.1092 11.45923,11.4922 21.38721,21.9302 22.06218,23.1954 1.47125,2.7579 1.41775,66.609 -0.0582,69.4496 -1.24456,2.3952 -4.98368,2.1964 -8.45408,-0.4495 z"
               id="path9"
               sodipodi:nodetypes="sssssssssssssssssssscssssssssssssssssssssssssssssssscsssscssssssssssssss"
               transform="matrix(0.75000002,0,0,-0.75000002,-389.44968,1650.9579)" /><g
               id="g8"
               transform="matrix(0.98369345,0,0,0.98369345,-334.70638,-291.48211)"><g
                 id="g1473"
                 transform="matrix(2.1167463,0,0,2.1167463,1132.0529,1456.6967)"
                 style="fill:#000000"><path
                   d="M 0,0 V -25.673 L -18.566,0 h -9.286 v -2.885 l 27.456,-37.232 h 9.46 L 9.064,0 Z"
                   style="fill:#000000;fill-opacity:1;fill-rule:nonzero;stroke:none"
                   id="path1475" /></g><g
                 id="g1477"
                 transform="matrix(2.1167463,0,0,2.1167463,1073.0967,1371.7801)"
                 style="fill:#000000"><path
                   d="M 0,0 H 8.999 V 17.086 L 0,29.202 Z"
                   style="fill:#000000;fill-opacity:1;fill-rule:nonzero;stroke:none"
                   id="path1479" /></g><g
                 id="g1481"
                 transform="matrix(2.1167463,0,0,2.1167463,1009.0443,1456.6777)"
                 style="fill:#000000"><path
                   d="m 0,0 -17.759,-40.095 h 10.021 l 3.38,8.244 H 7.799 l -3.075,7.39 h -6.043 l 5.498,13.404 12.088,-29.038 H 26.29 L 8.419,0 Z"
                   style="fill:#000000;fill-opacity:1;fill-rule:nonzero;stroke:none"
                   id="path1483" /></g><g
                 id="g1485"
                 style="fill:#000000"
                 transform="matrix(2.1167463,0,0,2.1167463,498.52895,732.73902)"><g
                   id="g1487"
                   clip-path="url(#clipPath1491)"
                   style="fill:#000000"><g
                     id="g1493"
                     transform="translate(184.2553,301.8939)"
                     style="fill:#000000"><path
                       d="m 0,0 v 40.127 h 18.861 c 10.373,0 16.794,-4.587 16.794,-12.784 v -2.065 c 0,-5.158 -3.324,-9.401 -9.515,-11.003 L 37.318,0 H 25.681 L 14.79,14.275 v 5.961 h 4.071 c 4.988,0 7.681,1.775 7.681,5.676 v 0.742 c 0,3.898 -2.693,5.56 -7.681,5.56 H 9.114 V 0 Z"
                       style="fill:#000000;fill-opacity:1;fill-rule:nonzero;stroke:none"
                       id="path1495" /></g><g
                     id="g1497"
                     transform="translate(333.4165,342.8245)"
                     style="fill:#000000"><path
                       d="m 0,0 c 10.374,0 17.713,-4.989 17.713,-11.81 v -3.901 H 8.655 v 3.213 c 0,2.808 -3.497,4.643 -8.655,4.643 -5.104,0 -8.6,-2.176 -8.6,-6.134 v -13.702 c 0,-4.01 3.496,-6.132 8.6,-6.132 5.158,0 8.655,1.836 8.655,4.643 v 3.552 h 9.058 v -4.241 c 0,-6.82 -7.339,-11.865 -17.713,-11.865 -10.319,0 -17.772,5.216 -17.772,13.357 v 15.076 C -17.772,-5.159 -10.319,0 0,0"
                       style="fill:#000000;fill-opacity:1;fill-rule:nonzero;stroke:none"
                       id="path1499" /></g><g
                     id="g1501"
                     transform="translate(388.6904,342.0206)"
                     style="fill:#000000"><path
                       d="m 0,0 v -7.912 h -21.326 v -7.968 h 17.77 v -7.795 h -17.77 v -8.598 H 0.515 v -7.854 H -30.441 V 0 Z"
                       style="fill:#000000;fill-opacity:1;fill-rule:nonzero;stroke:none"
                       id="path1503" /></g><g
                     id="g1505"
                     transform="translate(178.47,334.1085)"
                     style="fill:#000000"><path
                       d="m 0,0 0.003,7.853 -30.706,-3.506 0.15,-36.561 h 9.114 V -17.31 H -3.61 v 7.853 H -21.439 V 0 Z"
                       style="fill:#000000;fill-opacity:1;fill-rule:nonzero;stroke:none"
                       id="path1507" /></g><g
                     id="g1509"
                     transform="translate(110.6912,315.4882)"
                     style="fill:#000000"><path
                       d="m 0,0 c -0.617,0.877 -1.819,1.494 -3.313,1.494 -2.76,0 -3.767,-1.428 -3.767,-5.846 0,-4.612 0.877,-6.008 3.735,-6.008 1.851,0 2.89,0.844 3.345,1.655 z m 1.104,-14.063 -0.487,1.689 -0.097,0.031 c -1.17,-1.364 -2.891,-2.11 -5.262,-2.11 -5.066,0 -7.535,3.281 -7.535,10.328 0,6.463 2.469,10.135 7.47,10.135 1.851,0 3.508,-0.619 4.807,-1.787 L 0.065,4.287 0,6.885 v 4.321 l 5.034,0.26 v -25.529 z"
                       style="fill:#000000;fill-opacity:1;fill-rule:nonzero;stroke:none"
                       id="path1511" /></g><g
                     id="g1513"
                     transform="translate(131.1527,313.2802)"
                     style="fill:#000000"><path
                       d="M 0,0 C -0.065,2.889 -1.364,3.994 -3.475,3.994 -5.911,3.994 -6.853,2.857 -7.08,0 Z m -12.179,-1.754 c 0,6.267 2.759,9.938 8.67,9.938 5.035,0 8.121,-2.923 8.121,-9.158 0,-0.749 -0.033,-1.69 -0.13,-2.372 H -6.983 c 0.26,-3.281 1.851,-4.515 5.229,-4.515 1.851,0 3.573,0.325 5.262,0.974 l 0.552,-4.059 c -1.657,-0.747 -3.93,-1.267 -6.431,-1.267 -6.789,0 -9.808,3.574 -9.808,10.459"
                       style="fill:#000000;fill-opacity:1;fill-rule:nonzero;stroke:none"
                       id="path1515" /></g></g></g></g><g
               id="g1517"
               style="fill:#000000"
               transform="matrix(2.1319481,-0.03516555,0.03516555,2.1319481,102.41781,437.75783)"><g
                 id="g1519"
                 clip-path="url(#clipPath1523)"
                 style="fill:#000000"><g
                   id="g1525"
                   transform="translate(96.5116,367.605)"
                   style="fill:#000000"><path
                     d="m 0,0 c -7.16,-0.666 -9.341,1.951 -10.245,11.671 -0.856,9.195 0.631,12.153 7.791,12.819 3.144,0.291 5.991,-0.03 8.268,-0.523 l 0.291,10.124 c -2.711,0.747 -6.856,1.124 -10.29,0.805 -14.494,-1.348 -20.202,-10.04 -18.87,-24.359 1.44,-15.482 8.821,-22.251 22.267,-21.001 3.784,0.351 7.947,1.678 10.843,3.356 L 7.944,2.325 C 5.708,1.119 2.969,0.276 0,0"
                     style="fill:#000000;fill-opacity:1;fill-rule:nonzero;stroke:none"
                     id="path1527" /></g><g
                   id="g1529"
                   transform="translate(126.9043,397.4391)"
                   style="fill:#000000"><path
                     d="m 0,0 c -2.62,-0.243 -5.534,-1.101 -7.969,-3.325 l -0.186,0.101 -0.316,4.668 -0.655,7.042 -11.127,-1.563 4.185,-44.994 11.176,1.04 -2.302,24.737 c 0.824,1.251 2.43,2.281 4.467,2.471 2.969,0.276 4.442,-1.055 4.731,-4.14 l 2.067,-22.234 11.234,1.045 -2.069,22.234 C 12.42,-4.128 7.45,0.694 0,0"
                     style="fill:#000000;fill-opacity:1;fill-rule:nonzero;stroke:none"
                     id="path1531" /></g><g
                   id="g1533"
                   transform="translate(159.6933,371.8383)"
                   style="fill:#000000"><path
                     d="m 0,0 c -2.271,-0.211 -3.823,0.702 -4.062,3.263 -0.237,2.561 1.045,3.913 4.015,4.189 1.745,0.163 3.054,-0.01 3.889,-0.166 L 4.178,3.677 C 4.358,1.756 2.386,0.222 0,0 m -1.938,28.412 c -4.774,-0.444 -8.952,-1.597 -12.474,-3.509 l 1.665,-8.417 c 3.262,1.537 5.535,2.335 9.552,2.709 4.366,0.407 6.014,-0.909 6.257,-3.527 l 0.12,-1.282 c -1.731,0.311 -3.679,0.421 -6.066,0.199 -7.973,-0.741 -12.25,-5.894 -11.643,-12.414 0.741,-7.974 5.301,-11.541 12.227,-10.898 3.782,0.352 6.807,1.926 8.93,4.354 l 1.086,-2.835 8.614,0.802 -2.004,21.537 C 13.411,24.967 9.295,29.456 -1.938,28.412"
                     style="fill:#000000;fill-opacity:1;fill-rule:nonzero;stroke:none"
                     id="path1535" /></g><g
                   id="g1537"
                   transform="translate(237.1001,359.3453)"
                   style="fill:#000000"><path
                     d="m 0,0 c -2.097,-0.195 -3.643,0.659 -4.704,1.969 l -1.278,13.737 c 0.802,1.485 2.408,2.513 4.387,2.698 C 2.13,18.749 3.631,17.128 4.286,10.085 5.033,2.053 3.143,0.293 0,0 M 15.875,11.105 C 14.619,24.608 9.455,29 0.607,28.178 -2.302,27.907 -4.97,26.869 -7.116,25.114 l -0.875,8.573 c -0.851,9.138 -6.29,13.329 -13.449,12.663 -3.899,-0.363 -7.214,-1.963 -9.541,-5.349 -2.261,2.842 -5.36,3.963 -9.609,3.568 -3.201,-0.298 -6.283,-1.876 -8.58,-4.321 l -2.029,2.864 -7.988,-1.212 3.287,-35.332 11.175,1.04 -2.301,24.737 c 0.759,1.303 2.202,2.201 3.947,2.364 2.68,0.248 4.189,-0.844 4.475,-3.929 l 2.085,-22.408 11.234,1.045 -2.084,22.409 c -0.271,2.91 1.055,4.442 3.674,4.685 2.619,0.244 4.268,-1.07 4.55,-4.098 l 4.611,-51.492 11.676,1.199 -1.128,10.875 0.168,0.074 c 2.263,-1.61 4.878,-1.954 7.673,-1.693 8.265,0.768 13.157,7.505 12.02,19.729"
                     style="fill:#000000;fill-opacity:1;fill-rule:nonzero;stroke:none"
                     id="path1539" /></g><g
                   id="g1541"
                   transform="translate(259.5231,353.0345)"
                   style="fill:#000000"><path
                     d="M 0,0 -3.281,35.274 8.136,36.863 11.466,1.067 Z"
                     style="fill:#000000;fill-opacity:1;fill-rule:nonzero;stroke:none"
                     id="path1543" /></g><g
                   id="g1545"
                   transform="translate(292.0777,364.048)"
                   style="fill:#000000"><path
                     d="M 0,0 C 3.842,0.358 5.008,2.344 4.277,10.202 3.536,18.176 2.034,19.798 -1.807,19.441 -5.707,19.078 -6.885,17.207 -6.143,9.233 -5.406,1.317 -3.841,-0.357 0,0 m 0.755,-8.737 c -11.643,-1.082 -17.325,3.85 -18.539,16.887 -1.212,13.039 3.505,19.114 15.147,20.197 11.7,1.088 17.284,-4.03 18.496,-17.067 C 17.073,-1.759 12.513,-7.642 0.755,-8.737"
                     style="fill:#000000;fill-opacity:1;fill-rule:nonzero;stroke:none"
                     id="path1547" /></g><g
                   id="g1549"
                   transform="translate(333.8463,359.9487)"
                   style="fill:#000000"><path
                     d="m 0,0 -2.069,22.234 c -0.303,3.261 -1.877,4.406 -4.73,4.141 -1.861,-0.174 -3.596,-1.098 -4.465,-2.47 l 2.301,-24.739 -11.177,-1.04 -3.292,35.39 7.99,1.213 1.832,-2.648 c 2.423,2.339 5.638,3.753 9.13,4.078 7.509,0.7 12.806,-3.857 13.645,-12.88 L 11.233,1.046 Z"
                     style="fill:#000000;fill-opacity:1;fill-rule:nonzero;stroke:none"
                     id="path1551" /></g><g
                   id="g1553"
                   transform="translate(370.4538,363.3539)"
                   style="fill:#000000"><path
                     d="m 0,0 -2.068,22.234 c -0.303,3.261 -1.877,4.406 -4.73,4.139 -1.862,-0.172 -3.597,-1.096 -4.466,-2.468 l 2.301,-24.739 -11.177,-1.039 -3.29,35.389 7.988,1.213 1.833,-2.648 c 2.423,2.339 5.639,3.753 9.13,4.079 C 3.03,36.859 8.326,32.302 9.165,23.28 L 11.233,1.045 Z"
                     style="fill:#000000;fill-opacity:1;fill-rule:nonzero;stroke:none"
                     id="path1555" /></g><g
                   id="g1557"
                   transform="translate(403.0153,381.236)"
                   style="fill:#000000"><path
                     d="m 0,0 c -0.839,0.158 -2.146,0.33 -3.891,0.168 -2.97,-0.276 -4.251,-1.631 -4.013,-4.191 0.238,-2.561 1.791,-3.473 4.061,-3.263 2.386,0.223 4.357,1.756 4.178,3.678 z m 2.787,-11.658 c -2.122,-2.429 -5.148,-4.001 -8.932,-4.353 -6.924,-0.646 -11.484,2.923 -12.226,10.897 -0.606,6.52 3.669,11.672 11.644,12.414 2.386,0.221 4.334,0.11 6.066,-0.199 L -0.78,8.382 c -0.244,2.619 -1.893,3.934 -6.259,3.528 -4.017,-0.375 -6.29,-1.173 -9.553,-2.709 l -1.663,8.416 c 3.52,1.914 7.701,3.065 12.474,3.509 C 5.453,22.171 9.568,17.681 10.483,7.845 l 2.004,-21.536 -8.616,-0.801 z"
                     style="fill:#000000;fill-opacity:1;fill-rule:nonzero;stroke:none"
                     id="path1559" /></g><g
                   id="g1561"
                   transform="translate(430.6917,396.7267)"
                   style="fill:#000000"><path
                     d="m 0,0 1.521,-16.356 c 0.21,-2.269 1.409,-3.156 3.969,-2.919 0.873,0.083 2.079,0.371 2.698,0.663 l 1.307,-7.747 c -1.221,-0.758 -3.855,-1.473 -6.65,-1.734 -7.799,-0.725 -11.883,3.417 -12.532,10.401 l -1.548,16.647 -3.376,-0.314 -0.752,8.091 3.958,0.368 1.1,7.735 8.778,1.58 0.774,-8.325 7.392,0.688 0.752,-8.09 z"
                     style="fill:#000000;fill-opacity:1;fill-rule:nonzero;stroke:none"
                     id="path1563" /></g><g
                   id="g1565"
                   transform="translate(244.8991,426.5673)"
                   style="fill:#000000"><path
                     d="m 0,0 c 0.117,-7.636 6.4,-13.73 14.037,-13.614 7.635,0.117 13.73,6.401 13.614,14.036 C 27.534,8.058 21.249,14.154 13.615,14.037 5.978,13.921 -0.117,7.636 0,0"
                     style="fill:#000000;fill-opacity:1;fill-rule:nonzero;stroke:none"
                     id="path1567" /></g></g></g><g
               id="g2573"
               style="fill:#000000"
               transform="matrix(2.0042906,-0.69280239,0.69280239,2.0042906,-96.155859,769.3723)"><g
                 id="g2575"
                 clip-path="url(#clipPath2579)"
                 style="fill:#000000"><g
                   id="g2581"
                   transform="translate(444.5833,331.8744)"
                   style="fill:#000000"><path
                     d="m 0,0 c 0,0 1.416,0.852 1.884,0.584 0.47,-0.27 3.623,-2.995 4.143,-3.471 0.52,-0.475 8.062,-4.381 8.212,-4.549 0.149,-0.168 0.113,0.437 0.113,0.437 0,0 -4.606,7.311 -4.855,8.256 -0.25,0.944 -0.302,1.514 0.145,3.428 0.445,1.913 6.661,9.316 7.211,9.628 1.223,0.694 2.087,0.422 2.562,0.646 0.083,0.039 0.329,0.184 0.355,0.613 0.097,1.542 0.44,4.714 0.392,5.351 -0.061,0.821 -1.877,4.695 -2.154,6.202 -0.278,1.503 -0.188,3.413 -0.188,3.413 l -0.496,0.708 -7.174,9.024 c 0,0 -1.228,1.553 -1.708,1.958 -0.401,0.34 -3.103,0.469 -3.139,0.709 -0.035,0.238 1.349,0.77 1.456,0.895 0.105,0.125 0.015,0.317 -0.16,0.67 -0.186,0.378 -1.395,2.134 -1.777,2.509 -0.383,0.371 -1.293,0.881 -1.158,1.001 0.175,0.159 0.419,0.372 0.836,0.238 0.418,-0.136 1.296,-0.74 1.296,-0.74 0,0 1.325,-0.153 1.554,-0.388 0.232,-0.234 2.95,-3.617 3.395,-4.01 0.445,-0.39 4.484,-3.66 5.777,-4.906 1.293,-1.247 3.559,-3.962 3.818,-4.565 0.26,-0.602 0.205,-1.299 0.205,-1.299 0,0 1.683,-3.767 3.264,-7.151 1.58,-3.386 2.31,-6.97 2.942,-8.47 0.633,-1.5 3.447,-5.832 3.447,-5.832 0,0 3.174,-5.25 3.584,-5.567 0.22,-0.169 0.926,-0.615 1.932,-0.818 1.006,-0.204 2.389,-0.109 2.775,-0.017 0.385,0.091 4.495,2.09 4.495,2.09 0,0 5.312,3.079 8.896,4.652 3.586,1.573 10.342,3.521 10.342,3.521 0,0 2.65,-1.152 2.563,-2.277 -0.096,-1.218 -2.508,-9.143 -2.508,-9.143 0,0 -0.006,-0.241 0.163,-0.458 0.167,-0.216 0.582,-0.198 0.582,-0.198 l 4.194,1.484 c 0,0 1.005,0.02 1.202,-0.859 0.198,-0.881 -1.169,-2.811 -1.169,-2.811 0,0 -6.438,-4.468 -6.993,-4.709 -0.111,-0.048 -0.464,-0.37 -0.949,-0.308 -0.485,0.062 -1.042,0.201 -1.191,0.246 -0.222,0.069 -0.796,0.833 -0.685,1.494 0.111,0.661 1.29,1.254 1.339,1.821 0.02,0.223 -0.114,5.311 -0.806,6.971 -0.089,0.12 -0.345,0.163 -0.477,0.07 -0.134,-0.093 -7.791,-6.434 -9.022,-7.623 -1.229,-1.189 -2.244,-3.672 -2.338,-4.159 -0.094,-0.486 0.29,-1.673 0.762,-2.349 0.471,-0.677 6.173,-7.736 6.576,-8.129 0.405,-0.394 1.45,-1.114 1.772,-1.246 0.301,-0.124 0.555,-0.238 0.808,-0.238 0.254,-0.001 4.541,1.462 4.541,1.462 l 4.113,1.663 0.569,1.553 c 0,0 0.49,0.737 1.535,0.435 1.043,-0.302 2.71,-2.19 3.618,-2.617 0.806,-0.379 2.54,-0.613 3.123,-0.811 0.581,-0.198 2.417,-1.391 2.417,-1.391 0,0 0.523,-0.628 0.342,-1.035 -0.181,-0.407 -0.843,-1.393 -1.848,-1.778 -1.005,-0.386 -2.584,-0.19 -3.591,0.239 -1.009,0.427 -5.171,2.555 -5.171,2.555 0,0 -4.006,-3.731 -5.873,-4.869 -0.584,-0.356 -3.772,-1.308 -4.389,-1.165 -0.617,0.143 -10.09,4.686 -13.412,6.307 -3.32,1.62 -9.434,4.951 -10.001,5.478 -0.569,0.527 -1.63,2.706 -2.597,3.908 -0.967,1.204 -10.891,4.646 -11.382,4.682 -0.492,0.036 -0.669,-0.087 -0.669,-0.087 l 2.21,-7.81 c 0,0 -0.329,-2.291 -1.087,-2.441 -0.757,-0.15 -6.189,2.432 -7.286,3.528 -1.095,1.097 -4.03,3.542 -5.821,4.4 -1.073,0.965 -5.01,0.972 -5.01,0.972 0,0 1.194,0.696 1.597,1.991 C 2.589,-0.523 0,0 0,0"
                     style="fill:#000000;fill-opacity:1;fill-rule:nonzero;stroke:none"
                     id="path2583" /></g><g
                   id="g2585"
                   transform="translate(452.89,357.1008)"
                   style="fill:#000000"><path
                     d="m 0,0 c -1.47,-0.214 -2.333,-0.586 -3.717,-1.838 -1.249,-1.132 -1.516,-2.84 -1.467,-3.918 -0.036,-0.857 0.238,-2.529 1.064,-3.358 1.462,-1.463 3.692,-2.705 4.666,-3.587 0.589,-0.532 2.311,-1.034 2.969,-0.847 0.836,0.237 1.67,0.9 1.935,1.792 0.364,1.226 0.667,3.891 0.628,5.292 -0.038,1.419 -0.697,2.628 -0.697,2.628 0,0 -0.914,1.644 -2.129,2.836 C 2.549,-0.312 1.064,0.156 0,0"
                     style="fill:#000000;fill-opacity:1;fill-rule:nonzero;stroke:none"
                     id="path2587" /></g></g></g></g><g
             id="g2016"
             transform="rotate(-4.5,-6630.3477,-35.71023)"
             style="fill:#000000"><g
               id="g1944"
               style="fill:#000000"><g
                 id="g1942"
                 style="fill:#000000" /></g></g></g></g></g></g></svg>
