<?xml version="1.0" encoding="UTF-8" standalone="no"?>
<!-- Generator: Adobe Illustrator 27.3.1, SVG Export Plug-In . SVG Version: 6.00 Build 0)  -->

<svg
   version="1.1"
   id="Calque_1"
   x="0px"
   y="0px"
   viewBox="0 0 342.43 113.6"
   xml:space="preserve"
   sodipodi:docname="Club alpin Roche Bonneville_couleur-01.svg"
   width="342.42999"
   height="113.6"
   inkscape:version="1.4.2 (f4327f4, 2025-05-13)"
   xmlns:inkscape="http://www.inkscape.org/namespaces/inkscape"
   xmlns:sodipodi="http://sodipodi.sourceforge.net/DTD/sodipodi-0.dtd"
   xmlns="http://www.w3.org/2000/svg"
   xmlns:svg="http://www.w3.org/2000/svg"><defs
   id="defs39" /><sodipodi:namedview
   id="namedview39"
   pagecolor="#ffffff"
   bordercolor="#000000"
   borderopacity="0.25"
   inkscape:showpageshadow="2"
   inkscape:pageopacity="0.0"
   inkscape:pagecheckerboard="0"
   inkscape:deskcolor="#d1d1d1"
   inkscape:zoom="1.2271974"
   inkscape:cx="-36.261485"
   inkscape:cy="108.78446"
   inkscape:window-width="1920"
   inkscape:window-height="1009"
   inkscape:window-x="-8"
   inkscape:window-y="-8"
   inkscape:window-maximized="1"
   inkscape:current-layer="Calque_1" />
<style
   type="text/css"
   id="style1">
	.st0{fill:#00A5CD;}
	.st1{fill:#4B4B4C;}
	.st2{fill:#4BBEDB;}
	.st3{fill:#707173;}
	.st4{fill:#00A5CC;}
	.st5{fill:#CB3029;}
</style>























<g
   id="g39"
   transform="translate(-5.72,-7.79)"><g
     id="g17">
	<path
   class="st0"
   d="m 151.25,38.33 h 5.7 v 21.79 h 11.14 v 4.62 h -16.84 z"
   id="path1" />
	<path
   class="st0"
   d="m 181.44,52.39 c 0,-2.04 -0.89,-2.96 -2.81,-2.96 -1.44,0 -2.59,0.59 -3.59,1.85 l -3.7,-2.59 c 1.67,-2.37 4.33,-3.55 7.84,-3.55 3.55,0 5.99,1.22 6.99,3.44 0.48,1.07 0.67,2.41 0.67,4.81 v 11.36 h -4.22 l -0.33,-1 c -1.18,1 -2.59,1.41 -5.07,1.41 -4.7,0 -6.48,-1.67 -6.48,-6.07 0,-4.63 1.74,-6.07 7.18,-6.07 h 3.52 z m -2.85,4.18 c -2,0 -2.78,0.67 -2.78,2.37 0,1.63 0.74,2.18 2.81,2.18 2.18,0 2.81,-0.67 2.81,-3 v -1.55 z"
   id="path2" />
	<path
   class="st0"
   d="m 204.71,64.75 h -5.7 V 38.33 h 10.03 c 3.55,0 5.44,0.52 6.85,1.92 1.33,1.33 1.92,3.11 1.92,5.85 0,4.55 -1.37,6.73 -4.77,7.7 l 5.7,10.95 h -6.29 l -4.96,-10.51 h -2.78 z m 3.85,-14.88 c 2.63,0 3.63,-0.96 3.63,-3.52 0,-2.55 -1,-3.51 -3.7,-3.51 h -3.88 v 7.03 z"
   id="path3" />
	<path
   class="st0"
   d="m 221.21,53.72 c 0,-6.07 2.48,-8.58 8.47,-8.58 5.96,0 8.44,2.52 8.44,8.58 v 2.89 c 0,6.07 -2.44,8.55 -8.47,8.55 -5.99,0 -8.44,-2.48 -8.44,-8.55 z m 11.51,0.41 c 0,-3.4 -0.85,-4.7 -3.03,-4.7 -2.22,0 -3.07,1.29 -3.07,4.7 v 2.07 c 0,3.37 0.85,4.66 3.07,4.66 2.18,0 3.03,-1.29 3.03,-4.66 z"
   id="path4" />
	<path
   class="st0"
   d="m 257.33,61.19 c -1.59,2.7 -4,3.96 -7.59,3.96 -3.11,0 -5.44,-1.07 -6.77,-3.15 -0.92,-1.44 -1.33,-3.44 -1.33,-6.33 v -0.96 c 0,-3.29 0.52,-5.37 1.67,-6.88 1.37,-1.78 3.48,-2.7 6.25,-2.7 3.59,0 5.99,1.26 7.44,3.96 l -3.96,2.26 c -0.89,-1.41 -1.7,-1.92 -3.07,-1.92 -2,0 -2.92,1.52 -2.92,4.77 v 2.04 c 0,3.11 1,4.62 3.11,4.62 1.41,0 2.33,-0.52 3.18,-1.89 z"
   id="path5" />
	<path
   class="st0"
   d="m 260.17,38.33 h 5.4 v 7.96 c 1.59,-0.93 2.44,-1.15 4.22,-1.15 3.07,0 5.29,1.33 6.18,3.7 0.41,1.07 0.55,2.48 0.55,4.96 v 10.95 h -5.4 V 54.16 c 0,-3.11 -0.81,-4.44 -2.74,-4.44 -1.96,0 -2.81,1.41 -2.81,4.7 v 10.32 h -5.4 z"
   id="path6" />
	<path
   class="st0"
   d="m 285.92,57.01 c 0,2.63 1.22,4 3.55,4 1.78,0 2.85,-0.55 3.77,-2.04 l 3.96,2.26 c -1.63,2.81 -4,3.92 -8.33,3.92 -6,0 -8.36,-2.63 -8.36,-9.25 v -1.22 c 0,-3.4 0.44,-5.37 1.59,-6.85 1.33,-1.81 3.55,-2.7 6.81,-2.7 6,0 8.4,2.74 8.4,9.55 v 1.85 h -11.4 v 0.48 z m 6.33,-4.14 v -0.44 c 0,-2.15 -1.15,-3.37 -3.22,-3.37 -1.96,0 -3.15,1.26 -3.15,3.37 v 0.44 z"
   id="path7" />
	<path
   class="st0"
   d="M 172.56,72.33 H 183 c 3.22,0 4.85,0.44 6.22,1.63 1.41,1.22 2.15,3.18 2.15,5.59 0,2.52 -0.67,4.18 -2.22,5.4 1.07,0.92 1.3,1.15 1.63,1.67 0.7,1.11 1.07,2.78 1.07,4.74 0,2.78 -0.81,4.77 -2.44,6.03 -1.37,1 -2.92,1.37 -5.92,1.37 H 172.57 V 72.33 Z m 10.03,10.73 c 2.26,0 3.15,-0.89 3.15,-3.11 0,-2.26 -0.89,-3.11 -3.15,-3.11 h -4.37 v 6.22 z m 0.48,11.17 c 2.22,0 3.11,-0.96 3.11,-3.33 0,-2.41 -0.89,-3.33 -3.11,-3.33 h -4.85 v 6.66 z"
   id="path8" />
	<path
   class="st0"
   d="m 194.72,87.72 c 0,-6.07 2.48,-8.58 8.47,-8.58 5.96,0 8.44,2.52 8.44,8.58 v 2.89 c 0,6.07 -2.44,8.55 -8.47,8.55 -5.99,0 -8.44,-2.48 -8.44,-8.55 z m 11.51,0.41 c 0,-3.4 -0.85,-4.7 -3.03,-4.7 -2.22,0 -3.07,1.29 -3.07,4.7 v 2.07 c 0,3.37 0.85,4.66 3.07,4.66 2.18,0 3.03,-1.29 3.03,-4.66 z"
   id="path9" />
	<path
   class="st0"
   d="m 215.7,79.58 h 4.03 l 0.44,1.44 c 1.3,-1.37 2.67,-1.89 5.03,-1.89 3.18,0 5.37,1.29 6.29,3.7 0.41,1.07 0.55,2.48 0.55,4.96 v 10.95 h -5.4 V 88.42 c 0,-3.4 -0.74,-4.7 -2.7,-4.7 -2.11,0 -2.85,1.33 -2.85,5.07 v 9.95 h -5.4 V 79.58 Z"
   id="path10" />
	<path
   class="st0"
   d="m 236.6,79.58 h 4.03 l 0.44,1.44 c 1.3,-1.37 2.67,-1.89 5.03,-1.89 3.18,0 5.37,1.29 6.29,3.7 0.41,1.07 0.55,2.48 0.55,4.96 v 10.95 h -5.4 V 88.42 c 0,-3.4 -0.74,-4.7 -2.7,-4.7 -2.11,0 -2.85,1.33 -2.85,5.07 v 9.95 h -5.4 V 79.58 Z"
   id="path11" />
	<path
   class="st0"
   d="m 262.36,91.01 c 0,2.63 1.22,4 3.55,4 1.78,0 2.85,-0.55 3.77,-2.04 l 3.96,2.26 c -1.63,2.81 -4,3.92 -8.33,3.92 -6,0 -8.36,-2.63 -8.36,-9.25 v -1.22 c 0,-3.4 0.44,-5.37 1.59,-6.85 1.33,-1.81 3.55,-2.7 6.81,-2.7 6,0 8.4,2.74 8.4,9.55 v 1.85 h -11.4 v 0.48 z m 6.32,-4.14 v -0.44 c 0,-2.15 -1.15,-3.37 -3.22,-3.37 -1.96,0 -3.15,1.26 -3.15,3.37 v 0.44 z"
   id="path12" />
	<path
   class="st0"
   d="m 275.45,79.58 h 5.48 l 3.59,12.73 3.63,-12.73 h 5.44 l -6.44,19.17 h -5.22 z"
   id="path13" />
	<path
   class="st0"
   d="m 296.62,72.03 h 5.4 v 5.07 h -5.4 z m 0,7.55 h 5.4 v 19.17 h -5.4 z"
   id="path14" />
	<path
   class="st0"
   d="m 312.12,72.33 v 18.21 c 0,3 0.74,3.89 3.33,3.85 H 316 v 4.37 h -0.78 c -6.96,0 -8.51,-1.59 -8.51,-8.77 V 72.33 Z"
   id="path15" />
	<path
   class="st0"
   d="m 323.48,72.33 v 18.21 c 0,3 0.74,3.89 3.33,3.85 h 0.55 v 4.37 h -0.78 c -6.96,0 -8.51,-1.59 -8.51,-8.77 V 72.33 Z"
   id="path16" />
	<path
   class="st0"
   d="m 334.32,91.01 c 0,2.63 1.22,4 3.55,4 1.78,0 2.85,-0.55 3.77,-2.04 l 3.96,2.26 c -1.63,2.81 -4,3.92 -8.33,3.92 -6,0 -8.36,-2.63 -8.36,-9.25 v -1.22 c 0,-3.4 0.44,-5.37 1.59,-6.85 1.33,-1.81 3.55,-2.7 6.81,-2.7 6,0 8.4,2.74 8.4,9.55 v 1.85 h -11.4 v 0.48 z m 6.33,-4.14 v -0.44 c 0,-2.15 -1.15,-3.37 -3.22,-3.37 -1.96,0 -3.15,1.26 -3.15,3.37 v 0.44 z"
   id="path17" />
</g><path
     class="st1"
     d="m 126.07,20.99 c 0,-6.07 3.71,-7.65 6.7,-7.65 2.07,0 3.62,0.63 4.94,2.01 l -2.53,2.53 c -0.78,-0.83 -1.44,-1.18 -2.41,-1.18 -0.89,0 -1.58,0.32 -2.13,0.98 -0.58,0.72 -0.83,1.73 -0.83,3.31 0,1.58 0.26,2.61 0.83,3.33 0.55,0.66 1.24,0.98 2.13,0.98 0.98,0 1.64,-0.35 2.41,-1.18 l 2.53,2.5 c -1.32,1.38 -2.88,2.04 -4.94,2.04"
     id="path18" /><path
     class="st1"
     d="m 132.77,28.67 c -2.99,0 -6.7,-1.61 -6.7,-7.67"
     id="path19" /><path
     class="st1"
     d="m 143.98,28.49 c -3.08,0 -4.37,-2.16 -4.37,-4.28 V 8.03 h 3.74 v 15.95 c 0,0.89 0.37,1.35 1.32,1.35 h 1.44 v 3.16 z"
     id="path20" /><path
     class="st1"
     d="m 156.86,28.49 v -1.38 c -0.98,1.03 -2.36,1.55 -3.74,1.55 -1.5,0 -2.7,-0.49 -3.54,-1.32 -1.21,-1.21 -1.52,-2.62 -1.52,-4.25 v -9.57 h 3.74 v 9.06 c 0,2.04 1.29,2.73 2.47,2.73 1.18,0 2.5,-0.69 2.5,-2.73 v -9.06 h 3.74 V 28.5 h -3.65 z"
     id="path21" /><path
     class="st1"
     d="m 174.85,27.32 c -0.83,0.83 -2.18,1.35 -3.65,1.35 -1.58,0 -2.7,-0.43 -3.74,-1.58 v 1.41 h -3.62 V 8.03 h 3.74 v 6.81 c 0.98,-1.09 2.1,-1.49 3.62,-1.49 1.47,0 2.82,0.52 3.65,1.35 1.5,1.5 1.52,4.05 1.52,6.3 0.01,2.23 -0.02,4.82 -1.52,6.32 m -4.74,-10.61 c -2.24,0 -2.53,1.84 -2.53,4.28 0,2.44 0.29,4.31 2.53,4.31 2.24,0 2.53,-1.87 2.53,-4.31 0,-2.44 -0.29,-4.28 -2.53,-4.28"
     id="path22" /><path
     class="st1"
     d="M 192.56,28.49 V 27.2 c -1.01,1.01 -1.96,1.44 -3.68,1.44 -1.7,0 -2.93,-0.43 -3.82,-1.32 -0.81,-0.83 -1.24,-2.04 -1.24,-3.36 0,-2.39 1.64,-4.34 5.12,-4.34 h 3.54 v -0.75 c 0,-1.64 -0.8,-2.36 -2.79,-2.36 -1.44,0 -2.1,0.35 -2.88,1.24 l -2.39,-2.33 c 1.47,-1.61 2.9,-2.07 5.4,-2.07 4.2,0 6.38,1.78 6.38,5.29 v 9.86 h -3.64 z m -0.09,-6.32 h -2.96 c -1.35,0 -2.1,0.63 -2.1,1.7 0,1.04 0.69,1.73 2.16,1.73 1.04,0 1.7,-0.09 2.36,-0.72 0.4,-0.37 0.55,-0.98 0.55,-1.9 v -0.81 z"
     id="path23" /><path
     class="st1"
     d="m 203.6,28.49 c -3.08,0 -4.37,-2.16 -4.37,-4.28 V 8.03 h 3.74 v 15.95 c 0,0.89 0.37,1.35 1.32,1.35 h 1.44 v 3.16 z"
     id="path24" /><path
     class="st1"
     d="m 218.86,27.32 c -0.83,0.83 -2.18,1.35 -3.65,1.35 -1.52,0 -2.64,-0.4 -3.62,-1.5 v 6.81 h -3.74 V 13.52 h 3.62 v 1.41 c 1.04,-1.15 2.16,-1.58 3.74,-1.58 1.47,0 2.82,0.52 3.65,1.35 1.5,1.5 1.52,4.05 1.52,6.3 0.01,2.23 -0.02,4.82 -1.52,6.32 m -4.74,-10.61 c -2.24,0 -2.53,1.84 -2.53,4.28 0,2.44 0.29,4.31 2.53,4.31 2.24,0 2.53,-1.87 2.53,-4.31 0,-2.44 -0.29,-4.28 -2.53,-4.28"
     id="path25" /><path
     class="st1"
     d="m 223.03,7.91 h 3.82 v 3.05 h -3.82 z m 0.06,5.61 h 3.74 V 28.5 h -3.74 z"
     id="path26" /><path
     class="st1"
     d="m 238.84,28.49 v -9.06 c 0,-2.04 -1.29,-2.73 -2.47,-2.73 -1.18,0 -2.5,0.69 -2.5,2.73 v 9.06 h -3.74 V 13.52 h 3.65 v 1.38 c 0.98,-1.03 2.36,-1.55 3.74,-1.55 1.5,0 2.7,0.49 3.54,1.32 1.21,1.21 1.52,2.62 1.52,4.25 v 9.57 z"
     id="path27" /><path
     class="st1"
     d="m 255.74,16.79 v 11.7 H 252 v -11.7 h -1.55 V 13.94 H 252 v -1.87 c 0,-2.13 1.32,-4.28 4.37,-4.28 h 2.13 v 3.16 h -1.47 c -0.89,0 -1.29,0.49 -1.29,1.35 v 1.64 h 2.76 v 2.85 z"
     id="path28" /><path
     class="st1"
     d="m 268.65,17.6 c -0.58,-0.58 -1.06,-0.89 -1.98,-0.89 -1.15,0 -2.42,0.86 -2.42,2.76 v 9.03 h -3.74 V 13.52 h 3.65 v 1.44 c 0.72,-0.86 2.16,-1.61 3.77,-1.61 1.47,0 2.5,0.37 3.54,1.41 z"
     id="path29" /><path
     class="st1"
     d="M 280.11,28.49 V 27.2 c -1.01,1.01 -1.96,1.44 -3.68,1.44 -1.7,0 -2.93,-0.43 -3.82,-1.32 -0.81,-0.83 -1.24,-2.04 -1.24,-3.36 0,-2.39 1.64,-4.34 5.12,-4.34 h 3.54 v -0.75 c 0,-1.64 -0.8,-2.36 -2.79,-2.36 -1.44,0 -2.1,0.35 -2.88,1.24 l -2.39,-2.33 c 1.47,-1.61 2.9,-2.07 5.4,-2.07 4.2,0 6.38,1.78 6.38,5.29 v 9.86 h -3.64 z m -0.08,-6.32 h -2.96 c -1.35,0 -2.1,0.63 -2.1,1.7 0,1.04 0.69,1.73 2.16,1.73 1.04,0 1.7,-0.09 2.36,-0.72 0.4,-0.37 0.55,-0.98 0.55,-1.9 v -0.81 z"
     id="path30" /><path
     class="st1"
     d="m 295.64,28.49 v -9.06 c 0,-2.04 -1.29,-2.73 -2.47,-2.73 -1.18,0 -2.5,0.69 -2.5,2.73 v 9.06 h -3.74 V 13.52 h 3.65 v 1.38 c 0.98,-1.03 2.36,-1.55 3.74,-1.55 1.5,0 2.7,0.49 3.54,1.32 1.21,1.21 1.52,2.62 1.52,4.25 v 9.57 z"
     id="path31" /><path
     class="st1"
     d="m 308.48,28.67 c -2.99,0 -6.7,-1.61 -6.7,-7.67 0,-6.07 3.71,-7.65 6.7,-7.65 2.07,0 3.62,0.63 4.95,2.01 l -2.53,2.53 c -0.78,-0.83 -1.44,-1.18 -2.42,-1.18 -0.89,0 -1.58,0.32 -2.13,0.98 -0.58,0.72 -0.83,1.73 -0.83,3.31 0,1.58 0.26,2.61 0.83,3.33 0.55,0.66 1.24,0.98 2.13,0.98 0.98,0 1.64,-0.35 2.42,-1.18 l 2.53,2.5 c -1.32,1.38 -2.88,2.04 -4.95,2.04"
     id="path32" /><path
     class="st1"
     d="M 323.03,28.49 V 27.2 c -1.01,1.01 -1.96,1.44 -3.68,1.44 -1.7,0 -2.93,-0.43 -3.82,-1.32 -0.81,-0.83 -1.24,-2.04 -1.24,-3.36 0,-2.39 1.64,-4.34 5.12,-4.34 h 3.54 v -0.75 c 0,-1.64 -0.8,-2.36 -2.79,-2.36 -1.44,0 -2.1,0.35 -2.88,1.24 l -2.39,-2.33 c 1.47,-1.61 2.9,-2.07 5.4,-2.07 4.2,0 6.38,1.78 6.38,5.29 v 9.86 h -3.64 z m -0.09,-6.32 h -2.96 c -1.35,0 -2.1,0.63 -2.1,1.7 0,1.04 0.69,1.73 2.16,1.73 1.04,0 1.7,-0.09 2.36,-0.72 0.4,-0.37 0.55,-0.98 0.55,-1.9 v -0.81 z"
     id="path33" /><path
     class="st1"
     d="m 329.78,7.91 h 3.82 v 3.05 h -3.82 z m 0.06,5.61 h 3.74 V 28.5 h -3.74 z"
     id="path34" /><path
     class="st1"
     d="m 341.8,28.67 c -2.36,0 -4.48,-0.26 -6.38,-2.16 l 2.44,-2.44 c 1.24,1.24 2.85,1.41 4,1.41 1.29,0 2.64,-0.43 2.64,-1.55 0,-0.75 -0.4,-1.26 -1.58,-1.38 l -2.36,-0.23 c -2.7,-0.26 -4.37,-1.44 -4.37,-4.2 0,-3.11 2.73,-4.77 5.78,-4.77 2.33,0 4.28,0.4 5.72,1.75 l -2.3,2.33 c -0.86,-0.78 -2.18,-1.01 -3.48,-1.01 -1.5,0 -2.13,0.69 -2.13,1.44 0,0.55 0.23,1.18 1.55,1.29 l 2.36,0.23 c 2.96,0.29 4.46,1.87 4.46,4.4 0,3.31 -2.82,4.89 -6.35,4.89"
     id="path35" /><polygon
     class="st1"
     points="307.22,27.57 309.98,27.57 308.72,31.76 305.24,31.76 "
     id="polygon35" /><path
     class="st2"
     d="m 69.23,55.91 c 0,0 21.37,-40.03 22.8,-42.32 1.43,-2.28 2.67,-4.99 5.54,-4.99 2.86,0 4.34,3.02 6.04,6.12 1.7,3.1 39.88,78.36 39.88,78.36 l -20.91,-1.7 c 0,0 -18.36,-35.18 -19.67,-37.32 -2.17,-3.56 -3.95,-3.56 -5.57,-3.56 -1.91,0 -3.79,0 -8.52,8.28 -4.81,8.44 -9.29,16.88 -9.29,16.88 z"
     id="path36" /><path
     class="st3"
     d="m 73.28,93.55 c 0,0 17.4,-32.34 18.77,-34.84 1.37,-2.5 2.71,-5.21 5.17,-5.21 2.45,0 3.7,2.58 5.46,5.88 1.76,3.31 16.51,31.92 16.51,31.92 0,0 -19.41,-0.89 -45.91,2.25 z"
     id="path37" /><path
     class="st4"
     d="m 69.53,94.18 c 0,0 -29.58,3.58 -58.17,15.08 0,0 33.82,-62.51 35.33,-65.17 1.52,-2.65 3.69,-7.56 6.77,-7.51 2.93,0.05 4.14,3.13 5.91,6.57 C 65.42,54.91 77.77,79 77.77,79 Z"
     id="path38" /><path
     class="st5"
     d="M 123.24,96.73 C 61.39,92.83 9.69,114.3 9.69,114.3 l -3.97,7.07 0.06,0.02 -0.01,-0.03 c 0,0 1.81,-0.45 1.91,-0.5 0.09,-0.05 2.02,-0.62 2.44,-0.81 0.42,-0.19 2.64,-0.95 2.81,-1.03 0.17,-0.08 1.88,-0.56 2.11,-0.64 0.23,-0.08 0.94,-0.23 1.08,-0.28 0.14,-0.05 0.3,-0.08 0.38,-0.12 0.08,-0.05 0.09,-0.12 0.03,-0.12 -0.06,0 0.03,-0.02 0.14,-0.02 0.11,0 0.33,-0.14 0.41,-0.25 0.08,-0.11 0.28,-0.3 0.38,-0.28 0.09,0.02 0.77,0.08 0.84,0.08 0.08,0 0.2,0.03 0.27,-0.03 0.07,-0.06 0.03,-0.08 0.05,-0.12 0.02,-0.05 -0.06,-0.16 -0.06,-0.16 0,0 0.03,-0.09 0.3,-0.17 0.27,-0.08 2.27,-0.61 2.44,-0.66 0.17,-0.05 1.45,-0.36 1.66,-0.45 0.2,-0.09 0.7,-0.25 0.83,-0.28 0.12,-0.03 0.19,-0.05 0.23,-0.02 0.05,0.03 0.09,0.09 0.17,0.14 0.08,0.05 0.17,0.03 0.17,0.03 0,0 -0.09,-0.03 -0.03,-0.12 0.06,-0.09 0.17,-0.16 0.36,-0.23 0.19,-0.08 0.73,-0.28 0.84,-0.33 0.11,-0.05 0.14,-0.14 0.14,-0.14 0,0 0.08,-0.06 0.12,-0.05 0.05,0.02 0.16,-0.02 0.25,0 0.09,0.02 0.2,0 0.34,0 0.14,0 0.5,-0.16 0.72,-0.17 0.22,-0.02 0.36,-0.05 0.48,-0.05 0.12,0 0.19,-0.02 0.23,0.02 0.05,0.03 0.08,0.11 0.09,0.16 0.02,0.05 0.09,0.08 0.2,0.05 0.11,-0.03 0.16,-0.03 0.2,-0.12 0.05,-0.09 -0.03,-0.2 -0.03,-0.2 0,0 0.02,-0.06 0.11,-0.09 0.09,-0.03 1.69,-0.5 1.83,-0.62 0.14,-0.12 0.2,-0.23 0.33,-0.22 0.12,0.02 0.33,-0.08 0.5,-0.09 0.17,-0.02 1.78,-0.52 2,-0.58 0.22,-0.06 1.34,-0.38 1.55,-0.38 0.21,0 0.34,-0.09 0.48,-0.08 0.14,0.02 0.16,0.02 0.19,-0.06 0.03,-0.08 0.23,-0.12 0.34,-0.17 0.11,-0.05 0.2,-0.08 0.25,-0.11 0.05,-0.03 -0.06,-0.12 -0.11,-0.12 -0.05,0 -0.25,-0.06 -0.25,-0.06 0,0 0.05,-0.03 0.2,-0.09 0.16,-0.06 0.75,-0.2 0.97,-0.25 0.22,-0.05 0.34,-0.12 0.41,-0.06 0.07,0.06 0.09,0.09 0.23,0.09 0.14,0 0.64,-0.12 0.77,-0.22 0.12,-0.09 0.36,-0.23 0.44,-0.27 0.08,-0.03 0.08,-0.12 0.08,-0.12 0,0 0.05,-0.03 0.16,-0.08 0.11,-0.05 0.47,-0.12 0.47,-0.12 0,0 -0.34,0.23 -0.41,0.3 -0.07,0.07 -0.14,0.11 -0.02,0.14 0.12,0.03 0.25,0.02 0.31,0 0.06,-0.02 0.31,-0.28 0.42,-0.34 0.11,-0.06 0.44,-0.22 0.55,-0.23 0.11,-0.02 -0.19,0.11 -0.22,0.2 -0.03,0.09 -0.06,0.17 0.12,0.11 0.19,-0.06 0.52,-0.14 0.59,-0.16 0.08,-0.02 0.05,-0.08 0,-0.12 -0.05,-0.05 -0.2,-0.14 -0.06,-0.22 0.14,-0.08 1.75,-0.45 1.75,-0.45 l 6.39,-1.72 c 0,0 0.25,-0.12 0.3,-0.08 0.05,0.05 0.09,0.12 0.34,0.08 0.25,-0.05 0.59,-0.09 0.77,-0.17 0.17,-0.08 0.42,-0.12 0.53,-0.11 0.11,0.02 0.17,0.02 0.2,0.08 0.03,0.06 -0.2,0.09 -0.2,0.17 0,0.08 0.11,0.06 0.22,0.09 0.11,0.03 0.25,0.03 0.39,0 0.14,-0.03 0.06,-0.03 0.19,-0.16 0.13,-0.13 0.17,-0.22 0.22,-0.27 0.05,-0.05 -0.08,-0.08 -0.22,-0.08 -0.14,0 -0.44,0.06 -0.31,-0.02 0.12,-0.08 0.72,-0.3 0.84,-0.38 0.12,-0.08 0.33,-0.31 0.39,-0.33 0.06,-0.02 0.75,-0.45 1.27,-0.52 0.52,-0.06 2.61,-0.42 2.86,-0.48 0.25,-0.06 0.58,-0.17 0.52,-0.11 -0.06,0.06 0.08,0 0.3,-0.06 0.22,-0.06 1.72,-0.25 1.92,-0.3 0.2,-0.05 0.95,-0.11 1.12,-0.14 0.17,-0.03 0.33,-0.14 0.42,-0.09 0.09,0.05 -0.11,0.16 0.16,0.16 0.27,0 0.41,-0.11 0.5,-0.2 0.09,-0.09 0.72,-0.33 0.88,-0.34 0.16,-0.02 0.86,-0.2 1.05,-0.22 0.19,-0.02 0.58,-0.03 0.58,-0.03 0,0 -0.12,0.22 -0.02,0.19 0.11,-0.03 0.48,-0.27 0.59,-0.33 0.11,-0.06 0.7,-0.22 0.81,-0.25 0.11,-0.03 0.58,-0.08 0.58,-0.08 l -0.05,0.12 c 0,0 0.38,-0.08 0.52,-0.08 0.14,0 1.08,-0.23 1.08,-0.23 0,0 -0.02,0.06 0.19,0.09 0.2,0.03 0.73,-0.06 0.97,-0.12 0.23,-0.06 1.11,-0.3 1.23,-0.33 0.12,-0.03 0.64,-0.14 0.83,-0.09 0.19,0.05 0.41,0.17 0.41,0.17 0,0 0.59,-0.31 0.83,-0.38 0.24,-0.07 0.98,-0.16 1.08,-0.2 0.09,-0.05 0.31,-0.25 0.36,-0.22 0.05,0.03 0,0.09 0,0.17 0,0.08 0.06,0.11 0.2,0 0.14,-0.11 0.5,-0.19 0.69,-0.19 0.19,0 0.88,0.06 1.22,0.05 0.34,-0.02 0.48,-0.02 0.59,-0.09 0.11,-0.08 -0.03,-0.11 -0.03,-0.19 0,-0.08 0.02,-0.16 0.2,-0.14 0.19,0.02 1.02,-0.11 1.19,-0.19 0.17,-0.08 0.91,-0.28 1.03,-0.34 0.12,-0.06 0.45,-0.11 0.61,-0.09 0.16,0.02 0.28,-0.03 0.3,0.09 0.02,0.12 -0.17,0.47 0.02,0.36 0.19,-0.11 0.33,-0.16 0.36,-0.23 0.03,-0.08 -0.05,-0.16 0.09,-0.23 0.14,-0.08 0.44,-0.12 0.55,-0.09 0.11,0.03 0.02,0.06 -0.06,0.12 -0.08,0.06 0.25,0.12 0.37,0.16 0.12,0.03 0.7,0.31 0.89,0.34 0.19,0.03 0.39,0.06 0.45,0.06 0.06,0 -0.08,-0.02 -0.08,-0.09 0,-0.08 0.06,-0.09 0.22,-0.12 0.16,-0.03 0.56,-0.03 0.75,0 0.19,0.03 0.12,0.08 0.45,0.06 0.13,-0.01 0.3,-0.02 0.45,-0.03 0.15,-0.02 0.29,-0.04 0.44,-0.06 0,-0.03 0,-0.11 0.02,-0.17 0.02,-0.06 0.09,-0.09 0.25,-0.08 0.16,0.02 0.66,0.08 0.78,0.03 0.12,-0.05 0.55,-0.14 0.75,-0.14 0.2,0 0.39,0 0.8,-0.05 0.41,-0.05 0.72,-0.08 0.88,-0.08 0.16,0 0.16,-0.09 0.16,-0.09 0,0 0.11,-0.08 0.31,-0.06 0.17,0.01 0.98,-0.04 1.29,-0.07 0.04,0 0.08,-0.01 0.13,-0.01 0.09,-0.02 0.41,-0.14 0.51,-0.14 0.09,0 0.31,0.02 0.31,0.02 0,0 0.28,-0.16 0.39,-0.17 0.11,-0.02 0.67,-0.08 0.88,-0.09 0.2,-0.02 0.98,-0.06 1.12,-0.05 0.07,0.01 0.04,0.03 0,0.06 0.29,-0.03 0.58,-0.06 0.88,-0.09 0.14,-0.02 0.27,-0.04 0.39,-0.08 0.19,-0.06 0.3,-0.34 0.48,-0.42 0.19,-0.08 0.48,-0.22 0.69,-0.23 0.2,-0.02 0.11,0.08 0.06,0.12 -0.05,0.05 0.03,0.08 0.19,0 0.16,-0.08 0.28,-0.14 0.25,-0.03 -0.03,0.11 -0.17,0.16 -0.16,0.2 0.02,0.05 0,0.05 0.2,-0.03 0.2,-0.08 0.28,-0.14 0.52,-0.12 0.23,0.02 0.72,0 1.11,-0.03 0.39,-0.03 0.69,-0.06 0.69,-0.06 0,0 -0.17,0.02 -0.08,0.12 0.06,0.07 0.07,0.12 0.11,0.12 0.01,0 0.02,0 0.03,0 0.02,-0.01 0.04,-0.02 0.07,-0.04 0.14,-0.11 0.33,-0.06 0.45,-0.03 0.05,0.01 0.12,0.01 0.19,0.01 0.14,-0.01 0.29,-0.03 0.43,-0.04 0,-0.01 0.01,-0.01 0.01,-0.02 -0.02,-0.08 -0.16,-0.2 -0.02,-0.17 0.14,0.03 0.06,0.09 0.31,0.11 0.25,0.02 0.98,-0.02 1.09,-0.03 0.02,0 0.23,-0.02 0.56,-0.04 1.11,-0.09 2.21,-0.16 3.3,-0.24 1.22,-0.09 2.26,-0.16 2.26,-0.16 l 7.36,-0.33 1.48,-0.02 c 0,0 0.03,-0.02 0.09,-0.14 0.06,-0.12 0.14,-0.2 0.34,-0.12 0.2,0.08 0.39,0.25 0.48,0.25 0.05,0 0.18,0 0.32,0.01 1.95,-0.04 3.87,-0.05 5.76,-0.04 0.73,-0.01 1.24,-0.01 1.24,-0.01 l 2.91,0.03 c 0,0 0.06,-0.03 0.16,-0.14 0.09,-0.11 0.22,-0.06 0.3,-0.06 0.08,0 2,-0.03 2.16,-0.05 0.16,-0.02 0.81,0.03 1,0.09 0.19,0.06 0.28,0.19 0.39,0.19 0.11,0 0.5,-0.05 0.67,-0.03 0.17,0.02 1.09,0.14 1.22,0.09 0.12,-0.05 0.17,-0.02 0.27,0.06 0.04,0.03 0.1,0.05 0.18,0.05 0.21,0.01 0.43,0.02 0.64,0.03 0.25,0 0.54,-0.01 0.58,0 0.06,0.02 0.09,-0.02 0.23,-0.06 0.14,-0.05 0.81,0 0.88,0.05 0.06,0.04 0.09,0.11 0.16,0.1 0.01,0 0.02,0 0.04,0 0.09,-0.03 0.15,-0.06 0.24,-0.06 0.09,0 0.38,0.08 0.38,0.08 0,0 1.97,0.12 2.28,0.12 0.31,0 0.94,0.09 1.25,0 0.31,-0.09 0.89,-0.08 0.8,-0.06 -0.09,0.02 0.14,0.03 0.31,0.02 0.17,-0.02 0.55,-0.06 0.73,-0.02 0.19,0.05 0.67,0.12 0.75,0.14 0.08,0.02 0.56,0.05 0.73,0.05 0.17,0 0.52,0.05 0.36,0.09 -0.1,0.03 -0.19,0.08 -0.19,0.11 0.14,0.01 0.28,0.02 0.42,0.03 0.01,-0.01 0.02,-0.01 0.04,-0.03 0.09,-0.12 0.33,-0.14 0.42,-0.16 0.09,-0.02 0.47,-0.19 0.39,-0.06 -0.08,0.12 -0.17,0.22 -0.17,0.22 0,0 -0.03,0.07 0.08,0.09 0.05,0 0.11,0.01 0.16,0.01 0.02,0 0.04,0 0.06,0 0.23,0.02 0.45,0.04 0.68,0.06 0.15,0 0.33,-0.01 0.37,0 0.06,0.02 -0.08,-0.02 -0.3,-0.11 -0.22,-0.09 0.08,-0.27 0.14,-0.17 0.06,0.09 0.08,0.09 0.12,0.11 0.05,0.02 0.11,-0.05 0.11,-0.05 0,0 0.06,-0.08 0.11,-0.03 0.05,0.05 -0.08,0.03 0.05,0.05 0.12,0.02 0,0.05 0.12,0.02 0.12,-0.03 0.19,-0.14 0.3,-0.08 0.11,0.06 0.7,0.2 0.83,0.25 0.12,0.05 0.39,0.16 0.5,0.17 0.11,0.02 0.23,0.06 0.34,0 0.11,-0.06 0.25,-0.08 0.38,-0.06 0.12,0.02 0.45,0.11 0.69,0.08 0.23,-0.03 0.23,-0.03 0.23,-0.03 0,0 0.05,-0.2 0.19,-0.12 0.14,0.08 0.06,0.14 0.28,0.19 0.22,0.05 0.3,0.11 0.3,0.11 0,0 0,0.08 -0.19,0.05 -0.19,-0.03 -0.25,-0.03 -0.31,-0.03 -0.06,0 -0.28,-0.02 -0.14,0.03 0,0 0,0 0,0 0.25,0.02 0.49,0.05 0.73,0.07 0.05,0 0.12,-0.01 0.26,0.01 0.13,0.01 0.37,0.04 0.61,0.08 0.35,0.03 0.71,0.07 1.05,0.1 0.02,-0.01 0.04,-0.02 0.07,-0.04 0.11,-0.09 0.06,-0.16 0.17,-0.08 0.11,0.08 0.12,0.16 0.23,0.16 0.11,0 1.55,0.15 1.71,0.19 0.01,0 0.03,0 0.04,0 0.13,0.02 0.37,-0.02 0.45,-0.05 0.09,-0.03 0.08,-0.12 0.23,-0.06 0.16,0.06 0.12,0.09 0.22,0.16 0.04,0.03 0.04,0.05 0.06,0.06 1.52,0.17 3.01,0.33 4.45,0.5 0.15,0.01 0.32,-0.03 0.43,-0.02 0.11,0.02 0.08,-0.03 0.27,-0.02 0.19,0.02 0.25,-0.02 0.34,0.05 0.07,0.04 0.12,0.09 0.19,0.13 0.33,0.04 0.67,0.08 1,0.12 0,0 0.01,0 0.02,0 0.2,0 0.42,0.05 0.42,0.05 l 0.1,0.02 c -0.04,-0.1 -7.65,-3.77 -39.29,-5.77 z m 24.64,3.81 c -0.06,-0.03 -0.08,-0.04 -0.1,-0.04 0.09,0 0.2,-0.01 0.24,-0.01 0.08,0 0.09,0.11 0.09,0.11 0,0 -0.11,0 -0.23,-0.06 z m 2.9,0.23 c 0,0 -0.05,0.11 -0.11,0.09 -0.06,-0.02 -0.2,-0.09 -0.2,-0.09 0,0 0.19,-0.05 0.3,-0.06 0.11,-0.01 0.01,0.06 0.01,0.06 z m 1.38,0.14 c -0.12,0.05 -0.23,0.03 -0.3,0.05 -0.06,0.02 -0.14,0 -0.14,0 0,0 0.25,-0.11 0.36,-0.12 0.11,-0.02 0.17,-0.06 0.17,-0.06 0,0 0.03,0.09 -0.09,0.13 z m 1.37,0.33 c -0.31,-0.05 -0.52,-0.08 -0.64,-0.08 -0.12,0 -0.38,-0.05 -0.38,-0.05 L 152.43,101 c 0.16,-0.06 0.27,-0.09 0.39,-0.09 0.12,0 0.11,0.02 0.23,0.06 0.12,0.05 0.42,0.16 0.42,0.16 0,0 0.38,0.16 0.06,0.11 z m 1.03,0.08 c -0.14,0.02 -0.5,-0.08 -0.5,-0.08 0.19,0 0.47,-0.03 0.59,-0.02 0.12,0.02 0.41,0.02 0.41,0.02 0,0 -0.35,0.06 -0.5,0.08 z m 1.65,-0.36 c 0.08,-0.05 0.58,0 0.72,-0.02 0.14,-0.02 0.44,0.12 0.48,0.19 0.05,0.06 0.05,0.11 -0.2,0 -0.25,-0.11 -1.16,-0.11 -1.16,-0.11 0,0 0.08,-0.01 0.16,-0.06 z m 0.71,0.58 c -0.06,0.03 -0.14,0.06 -0.23,0.03 -0.09,-0.03 -0.75,-0.06 -0.91,-0.09 -0.16,-0.03 -0.55,-0.17 -0.55,-0.17 0.14,0.03 0.44,0.06 0.55,0.08 0.11,0.02 0.28,0 0.47,0.02 0.19,0.02 0.42,0 0.55,0.03 0.12,0.02 0.19,0.07 0.12,0.1 z m 0.93,0.09 c -0.14,0 -0.33,0.05 -0.44,0.05 -0.11,0 -0.23,-0.09 -0.23,-0.09 0.05,0 0.3,-0.03 0.45,-0.05 0.16,-0.02 0.19,-0.08 0.27,-0.05 0.08,0.03 0.14,0.11 0.14,0.11 0,0 -0.05,0.03 -0.19,0.03 z m 1.82,0.19 c -0.08,-0.02 -0.23,-0.19 -0.23,-0.19 0.33,-0.02 0.34,0.12 0.45,0.2 0.11,0.08 -0.14,0.01 -0.22,-0.01 z"
     id="path39" /></g>
</svg>
