<svg id="Groupe_80" data-name="Groupe 80" xmlns="http://www.w3.org/2000/svg" viewBox="0 0 186.064 54.548">
  <defs>
    <style>
      .cls-1 {
        fill: #0095db;
      }

      .cls-2 {
        fill: #164194;
      }

      .cls-3 {
        fill: #e30613;
      }

      .cls-4 {
        fill: #a51008;
      }
    </style>
  </defs>
  <g id="Groupe_83" data-name="Groupe 83" transform="translate(0 22.262)">
    <path id="Tracé_74" data-name="Tracé 74" class="cls-1" d="M39.577,42.2c3.482,0,6.278,1.688,6.278,4.484V51.8c0,2.8-2.8,4.537-6.278,4.537S33.3,54.6,33.3,51.8V46.684C33.247,43.941,36.1,42.2,39.577,42.2Zm0,11.5c1.741,0,3.165-.739,3.165-2.057V47c0-1.372-1.424-2.057-3.165-2.057-1.794,0-3.165.739-3.165,2.057v4.59C36.359,52.962,37.783,53.7,39.577,53.7Z" transform="translate(-15.732 -42.2)"/>
    <path id="Tracé_75" data-name="Tracé 75" class="cls-1" d="M89.3,45.438V42.8h12.081v2.638H96.9v10.92H93.784V45.438Z" transform="translate(-42.191 -42.483)"/>
    <path id="Tracé_76" data-name="Tracé 76" class="cls-1" d="M143.819,56.438c-3.482,0-6.119-1.741-6.119-4.537V46.784c0-2.743,2.585-4.484,6.119-4.484s6.119,1.477,6.119,3.957v1.108h-3.06v-.9c0-1-1.213-1.53-3.06-1.53-1.741,0-3.007.739-3.007,2.057v4.642c0,1.372,1.266,2.057,3.007,2.057s3.007-.739,3.007-2.057v-.475H143.45V48.578h6.489V51.9C149.939,54.7,147.3,56.438,143.819,56.438Z" transform="translate(-65.058 -42.247)"/>
    <path id="Tracé_77" data-name="Tracé 77" class="cls-1" d="M205.64,42.8v2.69h-7.227v2.69h6.014v2.638h-6.014v2.9H205.8v2.638H195.3V42.8Z" transform="translate(-92.271 -42.483)"/>
    <path id="Tracé_78" data-name="Tracé 78" class="cls-1" d="M116.915,42.8h-2.849L108,56.358h3.429l1.161-2.8H116.7l-1.055-2.479h-2.057l1.9-4.537,4.062,9.812h3.429Z" transform="translate(-51.026 -42.483)"/>
    <g id="Groupe_80-2" data-name="Groupe 80" transform="translate(0 0.317)">
      <path id="Tracé_79" data-name="Tracé 79" class="cls-1" d="M0,51.4v9.021H3.06V56.1Z" transform="translate(0 -46.863)"/>
      <path id="Tracé_80" data-name="Tracé 80" class="cls-1" d="M12.186,42.8l-4.8,7.175L2.532,42.8H0v1.635l5.75,8.6H8.968l2.69-4.009v7.333h3.06V42.8Z" transform="translate(0 -42.8)"/>
    </g>
    <g id="Groupe_81" data-name="Groupe 81" transform="translate(32.866 0.317)">
      <path id="Tracé_81" data-name="Tracé 81" class="cls-1" d="M71.743,42.8v8.7l-6.278-8.7H62.3v.95l9.337,12.608h3.218V42.8Z" transform="translate(-62.3 -42.8)"/>
      <path id="Tracé_82" data-name="Tracé 82" class="cls-1" d="M62.3,49.8v9.865h3.06v-5.75Z" transform="translate(-62.3 -46.107)"/>
    </g>
    <g id="Groupe_82" data-name="Groupe 82" transform="translate(87.625 0.317)">
      <path id="Tracé_83" data-name="Tracé 83" class="cls-1" d="M175.543,42.8v8.7l-6.278-8.7H166.1v.95l9.337,12.608h3.218V42.8Z" transform="translate(-166.1 -42.8)"/>
      <path id="Tracé_84" data-name="Tracé 84" class="cls-1" d="M166.1,49.8v9.865h3.06v-5.75Z" transform="translate(-166.1 -46.107)"/>
    </g>
  </g>
  <g id="Groupe_84" data-name="Groupe 84" transform="translate(72.959 40.41)">
    <path id="Tracé_85" data-name="Tracé 85" class="cls-2" d="M148.64,77.1v2.69h-7.227v2.69h6.014v2.638h-6.014v2.9H148.8v2.638H138.3V77.1Z" transform="translate(-138.3 -76.836)"/>
    <path id="Tracé_86" data-name="Tracé 86" class="cls-2" d="M166.307,85.774V86.2c0,.95,1.108,1.9,3.324,1.9,2,0,3.007-.633,3.007-1.53V86.46c0-.9-1.319-1.161-3.165-1.266-2.954-.264-5.856-1.213-5.856-4.062v-.369c0-2.321,1.794-4.062,5.8-4.062,4.062,0,5.961,2,5.961,4.273v.633h-3.007v-.422c0-.95-.791-1.846-2.954-1.846-1.846,0-2.743.633-2.743,1.424v.106c0,1.108,1.477,1.319,3.271,1.424,2.743.211,5.75,1.161,5.75,3.9v.475c0,2.479-2.057,4.115-6.067,4.115-4.062,0-6.33-1.9-6.33-4.379v-.633Z" transform="translate(-150.111 -76.647)"/>
    <path id="Tracé_87" data-name="Tracé 87" class="cls-2" d="M198.714,76.6c3.535,0,6.014,1.688,6.014,4.009v1.319h-3.06V80.82c0-.95-1.161-1.583-2.954-1.583-1.741,0-2.9.739-2.9,2.057v4.642c0,1.372,1.161,2.057,2.9,2.057s2.954-.633,2.954-1.583V85.2h3.06v1.424c0,2.321-2.479,4.009-6.014,4.009-3.482,0-6.014-1.794-6.014-4.537V80.979C192.7,78.341,195.179,76.6,198.714,76.6Z" transform="translate(-164.002 -76.6)"/>
    <path id="Tracé_88" data-name="Tracé 88" class="cls-2" d="M254.26,77.1V88.02h7.175l-1.213,2.638H251.2V77.1Z" transform="translate(-191.641 -76.836)"/>
    <path id="Tracé_89" data-name="Tracé 89" class="cls-2" d="M343.14,77.1v2.69h-7.227v2.69h6.014v2.638h-6.014v2.9H343.3v2.638H332.8V77.1Z" transform="translate(-230.193 -76.836)"/>
    <path id="Tracé_90" data-name="Tracé 90" class="cls-2" d="M227.763,77.1h-2.849L218.9,90.711h3.429l1.108-2.8h4.115l-1-2.532h-2.057l1.846-4.537,4.115,9.865h3.376Z" transform="translate(-176.38 -76.836)"/>
    <path id="Tracé_91" data-name="Tracé 91" class="cls-2" d="M280.863,77.1h-2.849L272,90.711h3.376l1.161-2.8h4.115L279.6,85.382h-2.057l1.9-4.537,4.062,9.865h3.429Z" transform="translate(-201.468 -76.836)"/>
    <path id="Tracé_92" data-name="Tracé 92" class="cls-2" d="M310.083,77.1H303.7V90.711h3.112V79.79h3.271c1.688,0,2.638.686,2.638,2.057v4.115c0,1.372-.95,2.057-2.638,2.057h-1.477v2.638h1.477c3.534,0,5.7-1.741,5.7-4.484v-4.59C315.781,78.841,313.618,77.1,310.083,77.1Z" transform="translate(-216.445 -76.836)"/>
  </g>
  <g id="Groupe_85" data-name="Groupe 85" transform="translate(0 11.659)">
    <path id="Tracé_93" data-name="Tracé 93" class="cls-2" d="M.739,24.886v1.635h2.11v.633H.739v2.321H0V24.2H3.218v.686Z" transform="translate(0 -23.092)"/>
    <path id="Tracé_94" data-name="Tracé 94" class="cls-2" d="M12.19,22.1l-.9.844h-.528l.528-.844Zm.686,5.7v.633H9.5V23.155h3.218v.633H10.186v1.583H12.4v.58H10.239v1.794h2.638Z" transform="translate(-4.488 -22.1)"/>
    <path id="Tracé_95" data-name="Tracé 95" class="cls-2" d="M21.194,29.475H19.4V24.2h1.794c1.583,0,2.268.739,2.268,2.585C23.409,28.737,22.724,29.475,21.194,29.475Zm-.053-4.59H20.086v3.9h1.108c1.055,0,1.53-.369,1.53-2C22.671,25.308,22.249,24.886,21.141,24.886Z" transform="translate(-9.166 -23.092)"/>
    <path id="Tracé_96" data-name="Tracé 96" class="cls-2" d="M33.49,22.1l-.9.844h-.528l.528-.844Zm.633,5.7v.633H30.8V23.155h3.218v.633H31.486v1.583h2.163v.58H31.486v1.794h2.638Z" transform="translate(-14.552 -22.1)"/>
    <path id="Tracé_97" data-name="Tracé 97" class="cls-2" d="M43.027,27.1,44.4,29.423h-.844L42.394,27.26H41.339v2.216H40.6V24.2h1.794c1.161,0,1.688.475,1.688,1.477C44.082,26.521,43.712,27,43.027,27.1Zm-.633-2.268H41.339v1.846h1.055c.686,0,.95-.264.95-.95C43.343,25.1,43.027,24.833,42.394,24.833Z" transform="translate(-19.182 -23.092)"/>
    <path id="Tracé_98" data-name="Tracé 98" class="cls-2" d="M53.435,28.209H51.113l-.422,1.266H49.9L51.852,24.2H52.7l1.952,5.275h-.791Zm-1.319-2.9-.791,2.321h1.9l-.739-2.321-.158-.528h0Z" transform="translate(-23.576 -23.092)"/>
    <path id="Tracé_99" data-name="Tracé 99" class="cls-2" d="M62.521,24.886v4.59h-.739v-4.59H60.2V24.2H64v.686Z" transform="translate(-28.442 -23.092)"/>
    <path id="Tracé_100" data-name="Tracé 100" class="cls-2" d="M70.8,24.2h.739v5.275H70.8Z" transform="translate(-33.45 -23.092)"/>
    <path id="Tracé_101" data-name="Tracé 101" class="cls-2" d="M78.163,29.534c-1.53,0-2.163-.791-2.163-2.743s.633-2.69,2.163-2.69c1.583,0,2.163.791,2.163,2.69C80.379,28.742,79.746,29.534,78.163,29.534Zm0-4.8c-1.055,0-1.424.422-1.424,2.057,0,1.583.369,2.057,1.424,2.057s1.424-.422,1.424-2.057C79.587,25.208,79.218,24.733,78.163,24.733Z" transform="translate(-35.907 -23.045)"/>
    <path id="Tracé_102" data-name="Tracé 102" class="cls-2" d="M91.429,29.475,88.95,25.888l-.317-.475h0v4.115H88V24.253h.633l2.638,3.957h0V24.2H91.9v5.275Z" transform="translate(-41.576 -23.092)"/>
    <path id="Tracé_103" data-name="Tracé 103" class="cls-2" d="M105.939,24.886v1.635h2.11v.633h-2.11v2.321H105.2V24.2h3.218v.686Z" transform="translate(-49.703 -23.092)"/>
    <path id="Tracé_104" data-name="Tracé 104" class="cls-2" d="M117.079,27.1l1.372,2.321h-.844l-1.213-2.163h-1.055v2.216H114.6V24.2h1.794c1.161,0,1.688.475,1.688,1.477C118.082,26.521,117.765,27,117.079,27.1Zm-.686-2.268h-1.055v1.846h1.055c.686,0,.95-.264.95-.95C117.343,25.1,117.079,24.833,116.394,24.833Z" transform="translate(-54.144 -23.092)"/>
    <path id="Tracé_105" data-name="Tracé 105" class="cls-2" d="M127.482,28.209h-2.321l-.422,1.266H124l1.952-5.275h.844l1.952,5.275h-.791Zm-1.319-2.9-.791,2.321h1.9l-.739-2.321-.158-.528h0Z" transform="translate(-58.585 -23.092)"/>
    <path id="Tracé_106" data-name="Tracé 106" class="cls-2" d="M139.529,29.475l-2.479-3.587-.317-.475h0v4.115H136.1V24.253h.633l2.638,3.957h0V24.2H140v5.275Z" transform="translate(-64.302 -23.092)"/>
    <path id="Tracé_107" data-name="Tracé 107" class="cls-2" d="M149.2,29.434c-1.372-.106-2-.95-2-2.743s.739-2.69,2.321-2.69a2.751,2.751,0,0,1,1.213.264l-.105.633a3.181,3.181,0,0,0-1.108-.211c-1.108,0-1.583.475-1.583,2,0,1.635.475,2.11,1.583,2.11a2.452,2.452,0,0,0,1.108-.264l.105.58a3.061,3.061,0,0,1-1.108.317l-.211,1.266h-.633Z" transform="translate(-69.546 -22.998)"/>
    <path id="Tracé_108" data-name="Tracé 108" class="cls-2" d="M159.835,28.209h-2.321l-.422,1.266H156.3l1.952-5.275h.844l1.952,5.275h-.791Zm-1.319-2.9-.791,2.321h1.9l-.739-2.321-.158-.528h0Z" transform="translate(-73.845 -23.092)"/>
    <path id="Tracé_109" data-name="Tracé 109" class="cls-2" d="M168.7,24.2h.739v5.275H168.7Z" transform="translate(-79.704 -23.092)"/>
    <path id="Tracé_110" data-name="Tracé 110" class="cls-2" d="M175.33,29.534a2.884,2.884,0,0,1-1.53-.422l.105-.633a2.653,2.653,0,0,0,1.424.422c.739,0,1.108-.317,1.108-.9,0-1.213-2.585-.686-2.585-2.427,0-.844.528-1.477,1.741-1.477a3.529,3.529,0,0,1,1.372.264L176.86,25a3.4,3.4,0,0,0-1.266-.264c-.791,0-1.055.369-1.055.791,0,1.161,2.585.633,2.585,2.427C177.124,28.9,176.49,29.534,175.33,29.534Z" transform="translate(-82.113 -23.045)"/>
    <path id="Tracé_111" data-name="Tracé 111" class="cls-2" d="M186.923,28.742v.633H183.6V24.1h3.218v.633h-2.532v1.583h2.163v.58h-2.163V28.69h2.638Z" transform="translate(-86.743 -23.045)"/>
  </g>
  <g id="Groupe_88" data-name="Groupe 88" transform="translate(118.539)">
    <g id="Groupe_87" data-name="Groupe 87">
      <g id="Groupe_86" data-name="Groupe 86" transform="translate(0)">
        <path id="Tracé_112" data-name="Tracé 112" class="cls-1" d="M252.185,2.427,249.758,0h-8.071l-3.482,7.438h-7.386l-3.693,7.86h0L224.7,20.521l5.275,5.223,5.434-11.606.053-.106h0a.593.593,0,0,1,.475-.369.6.6,0,0,1,.422.158L248.07,25.639a.786.786,0,0,0,.475.211.5.5,0,0,0,.422-.422V17.514l-5.328-5.381,2.638-5.539a.593.593,0,0,1,.475-.369.6.6,0,0,1,.422.158l11.764,11.764a.786.786,0,0,0,.475.211.454.454,0,0,0,.422-.422v-7.86Z" transform="translate(-224.7)"/>
      </g>
      <path id="Tracé_113" data-name="Tracé 113" class="cls-2" d="M246,24.677a.6.6,0,0,1,.422.158L258.133,36.6a.786.786,0,0,0,.475.211h.053L253.649,23.2Z" transform="translate(-234.763 -10.961)"/>
      <path id="Tracé_114" data-name="Tracé 114" class="cls-2" d="M265.7,6.542a.5.5,0,0,1,.422-.264.6.6,0,0,1,.422.158L278.308,18.2a.786.786,0,0,0,.475.211c.053,0,.053,0,.106-.053L269.129,0Z" transform="translate(-244.071)"/>
      <path id="Tracé_115" data-name="Tracé 115" class="cls-2" d="M250.3,7.438l5.486,4.748L253.782,0Z" transform="translate(-236.795)"/>
      <path id="Tracé_116" data-name="Tracé 116" class="cls-2" d="M227.179,22.013h0L224.7,27.236l5.275,5.223.9-18.358Z" transform="translate(-224.7 -6.662)"/>
      <path id="Tracé_117" data-name="Tracé 117" class="cls-3" d="M238,46.625l9.021,9.021a.843.843,0,0,0,.528.264.548.548,0,0,0,.475-.475V47.627L240.8,40.4Z" transform="translate(-230.984 -19.087)"/>
      <path id="Tracé_118" data-name="Tracé 118" class="cls-3" d="M238,46.625l9.021,9.021a.843.843,0,0,0,.528.264.548.548,0,0,0,.475-.475V47.627L240.8,40.4Z" transform="translate(-230.984 -19.087)"/>
    </g>
    <path id="Tracé_119" data-name="Tracé 119" class="cls-4" d="M238,46.625l9.021,9.021a.843.843,0,0,0,.528.264c.053,0,.106-.053.158-.053L240.8,40.4Z" transform="translate(-230.984 -19.087)"/>
  </g>
</svg>
